<?xml version="1.0" encoding="utf-8"?>
<svg xmlns="http://www.w3.org/2000/svg" xmlns:xlink="http://www.w3.org/1999/xlink" xml:space="preserve" width="1100.75" height="1237.34375" viewBox="0 0 1100.75 1237.34375"><defs><linearGradient id="pattern-mask" x1="0%" y1="0%" x2="12%" y2="100%" gradientUnits="userSpaceOnUse"><stop offset="0%" stop-color="#000000"/><stop offset="100%" stop-color="#8900d5"/></linearGradient>
<mask id="qrmask"><g fill="#ffffff"><g transform="scale(45.864583333333)" fill="#fff"><path d="M24,21h-1.7V1.7H1.7V21H0l1,2l-1,2h1v2h22v-2h1l-1-2L24,21z M2,2h20v19v1H2v-1V2z"/></g>
<g>
<g transform="translate(329.875,161.875) scale(3.605)"><circle cx="3" cy="3" r="2.5"/></g>
<g transform="translate(371.875,161.875) scale(3.605)"><circle cx="3" cy="3" r="2.5"/></g>
<g transform="translate(434.875,161.875) scale(3.605)"><path d="M6,5.5H3C1.6,5.5,0.5,4.4,0.5,3v0c0-1.4,1.1-2.5,2.5-2.5h3V5.5z"/></g>
<g transform="translate(455.875,161.875) scale(3.605)"><path d="M3,5.5H0v-5h3c1.4,0,2.5,1.1,2.5,2.5v0C5.5,4.4,4.4,5.5,3,5.5z"/></g>
<g transform="translate(518.875,161.875) scale(3.605)"><circle cx="3" cy="3" r="2.5"/></g>
<g transform="translate(581.875,161.875) scale(3.605)"><path d="M6,5.5H3C1.6,5.5,0.5,4.4,0.5,3v0c0-1.4,1.1-2.5,2.5-2.5h3V5.5z"/></g>
<g transform="translate(602.875,161.875) scale(3.605)"><path d="M3,5.5H0v-5h3c1.4,0,2.5,1.1,2.5,2.5v0C5.5,4.4,4.4,5.5,3,5.5z"/></g>
<g transform="translate(644.875,161.875) scale(3.605)"><path d="M6,5.5H3C1.6,5.5,0.5,4.4,0.5,3v0c0-1.4,1.1-2.5,2.5-2.5h3V5.5z"/></g>
<g transform="translate(665.875,161.875) scale(3.605)"><path d="M3,5.5H0v-5h3c1.4,0,2.5,1.1,2.5,2.5v0C5.5,4.4,4.4,5.5,3,5.5z"/></g>
<g transform="translate(749.875,161.875) scale(3.605)"><circle cx="3" cy="3" r="2.5"/></g>
<g transform="translate(329.875,182.875) scale(3.605)"><path d="M6,5.5H3C1.6,5.5,0.5,4.4,0.5,3v0c0-1.4,1.1-2.5,2.5-2.5h3V5.5z"/></g>
<g transform="translate(350.875,182.875) scale(3.605)"><path d="M3,5.5H0v-5h3c1.4,0,2.5,1.1,2.5,2.5v0C5.5,4.4,4.4,5.5,3,5.5z"/></g>
<g transform="translate(392.875,182.875) scale(3.605)"><circle cx="3" cy="3" r="2.5"/></g>
<g transform="translate(434.875,182.875) scale(3.605)"><path d="M6,5.5H3C1.6,5.5,0.5,4.4,0.5,3v0c0-1.4,1.1-2.5,2.5-2.5h3V5.5z"/></g>
<g transform="translate(455.875,182.875) scale(3.605)"><path d="M3,5.5H0v-5h3c1.4,0,2.5,1.1,2.5,2.5v0C5.5,4.4,4.4,5.5,3,5.5z"/></g>
<g transform="translate(497.875,182.875) scale(3.605)"><circle cx="3" cy="3" r="2.5"/></g>
<g transform="translate(623.875,182.875) scale(3.605)"><circle cx="3" cy="3" r="2.5"/></g>
<g transform="translate(665.875,182.875) scale(3.605)"><circle cx="3" cy="3" r="2.5"/></g>
<g transform="translate(707.875,182.875) scale(3.605)"><path d="M6,5.5H3C1.6,5.5,0.5,4.4,0.5,3v0c0-1.4,1.1-2.5,2.5-2.5h3V5.5z"/></g>
<g transform="translate(728.875,182.875) scale(3.605)"><rect y="0.5" width="6" height="5"/></g>
<g transform="translate(749.875,182.875) scale(3.605)"><path d="M3,5.5H0v-5h3c1.4,0,2.5,1.1,2.5,2.5v0C5.5,4.4,4.4,5.5,3,5.5z"/></g>
<g transform="translate(329.875,203.875) scale(3.605)"><circle cx="3" cy="3" r="2.5"/></g>
<g transform="translate(434.875,203.875) scale(3.605)"><circle cx="3" cy="3" r="2.5"/></g>
<g transform="translate(539.875,203.875) scale(3.605)"><path d="M6,5.5H3C1.6,5.5,0.5,4.4,0.5,3v0c0-1.4,1.1-2.5,2.5-2.5h3V5.5z"/></g>
<g transform="translate(560.875,203.875) scale(3.605)"><path d="M3,5.5H0v-5h3c1.4,0,2.5,1.1,2.5,2.5v0C5.5,4.4,4.4,5.5,3,5.5z"/></g>
<g transform="translate(602.875,203.875) scale(3.605)"><circle cx="3" cy="3" r="2.5"/></g>
<g transform="translate(707.875,203.875) scale(3.605)"><path d="M6,5.5H3C1.6,5.5,0.5,4.4,0.5,3v0c0-1.4,1.1-2.5,2.5-2.5h3V5.5z"/></g>
<g transform="translate(728.875,203.875) scale(3.605)"><rect y="0.5" width="6" height="5"/></g>
<g transform="translate(749.875,203.875) scale(3.605)"><path d="M3,5.5H0v-5h3c1.4,0,2.5,1.1,2.5,2.5v0C5.5,4.4,4.4,5.5,3,5.5z"/></g>
<g transform="translate(350.875,224.875) scale(3.605)"><path d="M6,5.5H3C1.6,5.5,0.5,4.4,0.5,3v0c0-1.4,1.1-2.5,2.5-2.5h3V5.5z"/></g>
<g transform="translate(371.875,224.875) scale(3.605)"><path d="M3,5.5H0v-5h3c1.4,0,2.5,1.1,2.5,2.5v0C5.5,4.4,4.4,5.5,3,5.5z"/></g>
<g transform="translate(413.875,224.875) scale(3.605)"><circle cx="3" cy="3" r="2.5"/></g>
<g transform="translate(476.875,224.875) scale(3.605)"><path d="M6,5.5H3C1.6,5.5,0.5,4.4,0.5,3v0c0-1.4,1.1-2.5,2.5-2.5h3V5.5z"/></g>
<g transform="translate(497.875,224.875) scale(3.605)"><path d="M3,5.5H0v-5h3c1.4,0,2.5,1.1,2.5,2.5v0C5.5,4.4,4.4,5.5,3,5.5z"/></g>
<g transform="translate(539.875,224.875) scale(3.605)"><circle cx="3" cy="3" r="2.5"/></g>
<g transform="translate(581.875,224.875) scale(3.605)"><path d="M6,5.5H3C1.6,5.5,0.5,4.4,0.5,3v0c0-1.4,1.1-2.5,2.5-2.5h3V5.5z"/></g>
<g transform="translate(602.875,224.875) scale(3.605)"><path d="M3,5.5H0v-5h3c1.4,0,2.5,1.1,2.5,2.5v0C5.5,4.4,4.4,5.5,3,5.5z"/></g>
<g transform="translate(644.875,224.875) scale(3.605)"><path d="M6,5.5H3C1.6,5.5,0.5,4.4,0.5,3v0c0-1.4,1.1-2.5,2.5-2.5h3V5.5z"/></g>
<g transform="translate(665.875,224.875) scale(3.605)"><rect y="0.5" width="6" height="5"/></g>
<g transform="translate(686.875,224.875) scale(3.605)"><rect y="0.5" width="6" height="5"/></g>
<g transform="translate(707.875,224.875) scale(3.605)"><rect y="0.5" width="6" height="5"/></g>
<g transform="translate(728.875,224.875) scale(3.605)"><path d="M3,5.5H0v-5h3c1.4,0,2.5,1.1,2.5,2.5v0C5.5,4.4,4.4,5.5,3,5.5z"/></g>
<g transform="translate(350.875,245.875) scale(3.605)"><circle cx="3" cy="3" r="2.5"/></g>
<g transform="translate(434.875,245.875) scale(3.605)"><path d="M6,5.5H3C1.6,5.5,0.5,4.4,0.5,3v0c0-1.4,1.1-2.5,2.5-2.5h3V5.5z"/></g>
<g transform="translate(455.875,245.875) scale(3.605)"><path d="M3,5.5H0v-5h3c1.4,0,2.5,1.1,2.5,2.5v0C5.5,4.4,4.4,5.5,3,5.5z"/></g>
<g transform="translate(518.875,245.875) scale(3.605)"><path d="M6,5.5H3C1.6,5.5,0.5,4.4,0.5,3v0c0-1.4,1.1-2.5,2.5-2.5h3V5.5z"/></g>
<g transform="translate(539.875,245.875) scale(3.605)"><rect y="0.5" width="6" height="5"/></g>
<g transform="translate(560.875,245.875) scale(3.605)"><rect y="0.5" width="6" height="5"/></g>
<g transform="translate(581.875,245.875) scale(3.605)"><rect y="0.5" width="6" height="5"/></g>
<g transform="translate(602.875,245.875) scale(3.605)"><path d="M3,5.5H0v-5h3c1.4,0,2.5,1.1,2.5,2.5v0C5.5,4.4,4.4,5.5,3,5.5z"/></g>
<g transform="translate(644.875,245.875) scale(3.605)"><path d="M6,5.5H3C1.6,5.5,0.5,4.4,0.5,3v0c0-1.4,1.1-2.5,2.5-2.5h3V5.5z"/></g>
<g transform="translate(665.875,245.875) scale(3.605)"><path d="M3,5.5H0v-5h3c1.4,0,2.5,1.1,2.5,2.5v0C5.5,4.4,4.4,5.5,3,5.5z"/></g>
<g transform="translate(707.875,245.875) scale(3.605)"><circle cx="3" cy="3" r="2.5"/></g>
<g transform="translate(329.875,266.875) scale(3.605)"><circle cx="3" cy="3" r="2.5"/></g>
<g transform="translate(392.875,266.875) scale(3.605)"><circle cx="3" cy="3" r="2.5"/></g>
<g transform="translate(476.875,266.875) scale(3.605)"><circle cx="3" cy="3" r="2.5"/></g>
<g transform="translate(518.875,266.875) scale(3.605)"><circle cx="3" cy="3" r="2.5"/></g>
<g transform="translate(602.875,266.875) scale(3.605)"><circle cx="3" cy="3" r="2.5"/></g>
<g transform="translate(644.875,266.875) scale(3.605)"><path d="M6,5.5H3C1.6,5.5,0.5,4.4,0.5,3v0c0-1.4,1.1-2.5,2.5-2.5h3V5.5z"/></g>
<g transform="translate(665.875,266.875) scale(3.605)"><path d="M3,5.5H0v-5h3c1.4,0,2.5,1.1,2.5,2.5v0C5.5,4.4,4.4,5.5,3,5.5z"/></g>
<g transform="translate(728.875,266.875) scale(3.605)"><path d="M6,5.5H3C1.6,5.5,0.5,4.4,0.5,3v0c0-1.4,1.1-2.5,2.5-2.5h3V5.5z"/></g>
<g transform="translate(749.875,266.875) scale(3.605)"><path d="M3,5.5H0v-5h3c1.4,0,2.5,1.1,2.5,2.5v0C5.5,4.4,4.4,5.5,3,5.5z"/></g>
<g transform="translate(329.875,287.875) scale(3.605)"><circle cx="3" cy="3" r="2.5"/></g>
<g transform="translate(371.875,287.875) scale(3.605)"><circle cx="3" cy="3" r="2.5"/></g>
<g transform="translate(413.875,287.875) scale(3.605)"><circle cx="3" cy="3" r="2.5"/></g>
<g transform="translate(455.875,287.875) scale(3.605)"><circle cx="3" cy="3" r="2.5"/></g>
<g transform="translate(497.875,287.875) scale(3.605)"><circle cx="3" cy="3" r="2.5"/></g>
<g transform="translate(539.875,287.875) scale(3.605)"><circle cx="3" cy="3" r="2.5"/></g>
<g transform="translate(581.875,287.875) scale(3.605)"><circle cx="3" cy="3" r="2.5"/></g>
<g transform="translate(623.875,287.875) scale(3.605)"><circle cx="3" cy="3" r="2.5"/></g>
<g transform="translate(665.875,287.875) scale(3.605)"><circle cx="3" cy="3" r="2.5"/></g>
<g transform="translate(707.875,287.875) scale(3.605)"><circle cx="3" cy="3" r="2.5"/></g>
<g transform="translate(749.875,287.875) scale(3.605)"><circle cx="3" cy="3" r="2.5"/></g>
<g transform="translate(329.875,308.875) scale(3.605)"><path d="M6,5.5H3C1.6,5.5,0.5,4.4,0.5,3v0c0-1.4,1.1-2.5,2.5-2.5h3V5.5z"/></g>
<g transform="translate(350.875,308.875) scale(3.605)"><rect y="0.5" width="6" height="5"/></g>
<g transform="translate(371.875,308.875) scale(3.605)"><path d="M3,5.5H0v-5h3c1.4,0,2.5,1.1,2.5,2.5v0C5.5,4.4,4.4,5.5,3,5.5z"/></g>
<g transform="translate(455.875,308.875) scale(3.605)"><circle cx="3" cy="3" r="2.5"/></g>
<g transform="translate(518.875,308.875) scale(3.605)"><circle cx="3" cy="3" r="2.5"/></g>
<g transform="translate(560.875,308.875) scale(3.605)"><circle cx="3" cy="3" r="2.5"/></g>
<g transform="translate(665.875,308.875) scale(3.605)"><circle cx="3" cy="3" r="2.5"/></g>
<g transform="translate(707.875,308.875) scale(3.605)"><circle cx="3" cy="3" r="2.5"/></g>
<g transform="translate(749.875,308.875) scale(3.605)"><circle cx="3" cy="3" r="2.5"/></g>
<g transform="translate(203.875,329.875) scale(3.605)"><path d="M6,5.5H3C1.6,5.5,0.5,4.4,0.5,3v0c0-1.4,1.1-2.5,2.5-2.5h3V5.5z"/></g>
<g transform="translate(224.875,329.875) scale(3.605)"><rect y="0.5" width="6" height="5"/></g>
<g transform="translate(245.875,329.875) scale(3.605)"><path d="M3,5.5H0v-5h3c1.4,0,2.5,1.1,2.5,2.5v0C5.5,4.4,4.4,5.5,3,5.5z"/></g>
<g transform="translate(287.875,329.875) scale(3.605)"><circle cx="3" cy="3" r="2.5"/></g>
<g transform="translate(329.875,329.875) scale(3.605)"><path d="M6,5.5H3C1.6,5.5,0.5,4.4,0.5,3v0c0-1.4,1.1-2.5,2.5-2.5h3V5.5z"/></g>
<g transform="translate(350.875,329.875) scale(3.605)"><path d="M3,5.5H0v-5h3c1.4,0,2.5,1.1,2.5,2.5v0C5.5,4.4,4.4,5.5,3,5.5z"/></g>
<g transform="translate(602.875,329.875) scale(3.605)"><path d="M6,5.5H3C1.6,5.5,0.5,4.4,0.5,3v0c0-1.4,1.1-2.5,2.5-2.5h3V5.5z"/></g>
<g transform="translate(623.875,329.875) scale(3.605)"><path d="M3,5.5H0v-5h3c1.4,0,2.5,1.1,2.5,2.5v0C5.5,4.4,4.4,5.5,3,5.5z"/></g>
<g transform="translate(665.875,329.875) scale(3.605)"><circle cx="3" cy="3" r="2.5"/></g>
<g transform="translate(770.875,329.875) scale(3.605)"><path d="M6,5.5H3C1.6,5.5,0.5,4.4,0.5,3v0c0-1.4,1.1-2.5,2.5-2.5h3V5.5z"/></g>
<g transform="translate(791.875,329.875) scale(3.605)"><rect y="0.5" width="6" height="5"/></g>
<g transform="translate(812.875,329.875) scale(3.605)"><path d="M3,5.5H0v-5h3c1.4,0,2.5,1.1,2.5,2.5v0C5.5,4.4,4.4,5.5,3,5.5z"/></g>
<g transform="translate(875.875,329.875) scale(3.605)"><path d="M6,5.5H3C1.6,5.5,0.5,4.4,0.5,3v0c0-1.4,1.1-2.5,2.5-2.5h3V5.5z"/></g>
<g transform="translate(896.875,329.875) scale(3.605)"><rect y="0.5" width="6" height="5"/></g>
<g transform="translate(917.875,329.875) scale(3.605)"><path d="M3,5.5H0v-5h3c1.4,0,2.5,1.1,2.5,2.5v0C5.5,4.4,4.4,5.5,3,5.5z"/></g>
<g transform="translate(161.875,350.875) scale(3.605)"><path d="M6,5.5H3C1.6,5.5,0.5,4.4,0.5,3v0c0-1.4,1.1-2.5,2.5-2.5h3V5.5z"/></g>
<g transform="translate(182.875,350.875) scale(3.605)"><path d="M3,5.5H0v-5h3c1.4,0,2.5,1.1,2.5,2.5v0C5.5,4.4,4.4,5.5,3,5.5z"/></g>
<g transform="translate(224.875,350.875) scale(3.605)"><path d="M6,5.5H3C1.6,5.5,0.5,4.4,0.5,3v0c0-1.4,1.1-2.5,2.5-2.5h3V5.5z"/></g>
<g transform="translate(245.875,350.875) scale(3.605)"><path d="M3,5.5H0v-5h3c1.4,0,2.5,1.1,2.5,2.5v0C5.5,4.4,4.4,5.5,3,5.5z"/></g>
<g transform="translate(308.875,350.875) scale(3.605)"><circle cx="3" cy="3" r="2.5"/></g>
<g transform="translate(350.875,350.875) scale(3.605)"><path d="M6,5.5H3C1.6,5.5,0.5,4.4,0.5,3v0c0-1.4,1.1-2.5,2.5-2.5h3V5.5z"/></g>
<g transform="translate(371.875,350.875) scale(3.605)"><path d="M3,5.5H0v-5h3c1.4,0,2.5,1.1,2.5,2.5v0C5.5,4.4,4.4,5.5,3,5.5z"/></g>
<g transform="translate(413.875,350.875) scale(3.605)"><circle cx="3" cy="3" r="2.5"/></g>
<g transform="translate(476.875,350.875) scale(3.605)"><circle cx="3" cy="3" r="2.5"/></g>
<g transform="translate(518.875,350.875) scale(3.605)"><circle cx="3" cy="3" r="2.5"/></g>
<g transform="translate(560.875,350.875) scale(3.605)"><path d="M6,5.5H3C1.6,5.5,0.5,4.4,0.5,3v0c0-1.4,1.1-2.5,2.5-2.5h3V5.5z"/></g>
<g transform="translate(581.875,350.875) scale(3.605)"><path d="M3,5.5H0v-5h3c1.4,0,2.5,1.1,2.5,2.5v0C5.5,4.4,4.4,5.5,3,5.5z"/></g>
<g transform="translate(623.875,350.875) scale(3.605)"><circle cx="3" cy="3" r="2.5"/></g>
<g transform="translate(665.875,350.875) scale(3.605)"><path d="M6,5.5H3C1.6,5.5,0.5,4.4,0.5,3v0c0-1.4,1.1-2.5,2.5-2.5h3V5.5z"/></g>
<g transform="translate(686.875,350.875) scale(3.605)"><rect y="0.5" width="6" height="5"/></g>
<g transform="translate(707.875,350.875) scale(3.605)"><rect y="0.5" width="6" height="5"/></g>
<g transform="translate(728.875,350.875) scale(3.605)"><rect y="0.5" width="6" height="5"/></g>
<g transform="translate(749.875,350.875) scale(3.605)"><rect y="0.5" width="6" height="5"/></g>
<g transform="translate(770.875,350.875) scale(3.605)"><rect y="0.5" width="6" height="5"/></g>
<g transform="translate(791.875,350.875) scale(3.605)"><path d="M3,5.5H0v-5h3c1.4,0,2.5,1.1,2.5,2.5v0C5.5,4.4,4.4,5.5,3,5.5z"/></g>
<g transform="translate(875.875,350.875) scale(3.605)"><path d="M6,5.5H3C1.6,5.5,0.5,4.4,0.5,3v0c0-1.4,1.1-2.5,2.5-2.5h3V5.5z"/></g>
<g transform="translate(896.875,350.875) scale(3.605)"><path d="M3,5.5H0v-5h3c1.4,0,2.5,1.1,2.5,2.5v0C5.5,4.4,4.4,5.5,3,5.5z"/></g>
<g transform="translate(224.875,371.875) scale(3.605)"><circle cx="3" cy="3" r="2.5"/></g>
<g transform="translate(266.875,371.875) scale(3.605)"><path d="M6,5.5H3C1.6,5.5,0.5,4.4,0.5,3v0c0-1.4,1.1-2.5,2.5-2.5h3V5.5z"/></g>
<g transform="translate(287.875,371.875) scale(3.605)"><rect y="0.5" width="6" height="5"/></g>
<g transform="translate(308.875,371.875) scale(3.605)"><path d="M3,5.5H0v-5h3c1.4,0,2.5,1.1,2.5,2.5v0C5.5,4.4,4.4,5.5,3,5.5z"/></g>
<g transform="translate(371.875,371.875) scale(3.605)"><path d="M6,5.5H3C1.6,5.5,0.5,4.4,0.5,3v0c0-1.4,1.1-2.5,2.5-2.5h3V5.5z"/></g>
<g transform="translate(392.875,371.875) scale(3.605)"><path d="M3,5.5H0v-5h3c1.4,0,2.5,1.1,2.5,2.5v0C5.5,4.4,4.4,5.5,3,5.5z"/></g>
<g transform="translate(455.875,371.875) scale(3.605)"><circle cx="3" cy="3" r="2.5"/></g>
<g transform="translate(539.875,371.875) scale(3.605)"><path d="M6,5.5H3C1.6,5.5,0.5,4.4,0.5,3v0c0-1.4,1.1-2.5,2.5-2.5h3V5.5z"/></g>
<g transform="translate(560.875,371.875) scale(3.605)"><rect y="0.5" width="6" height="5"/></g>
<g transform="translate(581.875,371.875) scale(3.605)"><path d="M3,5.5H0v-5h3c1.4,0,2.5,1.1,2.5,2.5v0C5.5,4.4,4.4,5.5,3,5.5z"/></g>
<g transform="translate(623.875,371.875) scale(3.605)"><path d="M6,5.5H3C1.6,5.5,0.5,4.4,0.5,3v0c0-1.4,1.1-2.5,2.5-2.5h3V5.5z"/></g>
<g transform="translate(644.875,371.875) scale(3.605)"><path d="M3,5.5H0v-5h3c1.4,0,2.5,1.1,2.5,2.5v0C5.5,4.4,4.4,5.5,3,5.5z"/></g>
<g transform="translate(686.875,371.875) scale(3.605)"><path d="M6,5.5H3C1.6,5.5,0.5,4.4,0.5,3v0c0-1.4,1.1-2.5,2.5-2.5h3V5.5z"/></g>
<g transform="translate(707.875,371.875) scale(3.605)"><path d="M3,5.5H0v-5h3c1.4,0,2.5,1.1,2.5,2.5v0C5.5,4.4,4.4,5.5,3,5.5z"/></g>
<g transform="translate(791.875,371.875) scale(3.605)"><path d="M6,5.5H3C1.6,5.5,0.5,4.4,0.5,3v0c0-1.4,1.1-2.5,2.5-2.5h3V5.5z"/></g>
<g transform="translate(812.875,371.875) scale(3.605)"><path d="M3,5.5H0v-5h3c1.4,0,2.5,1.1,2.5,2.5v0C5.5,4.4,4.4,5.5,3,5.5z"/></g>
<g transform="translate(896.875,371.875) scale(3.605)"><path d="M6,5.5H3C1.6,5.5,0.5,4.4,0.5,3v0c0-1.4,1.1-2.5,2.5-2.5h3V5.5z"/></g>
<g transform="translate(917.875,371.875) scale(3.605)"><path d="M3,5.5H0v-5h3c1.4,0,2.5,1.1,2.5,2.5v0C5.5,4.4,4.4,5.5,3,5.5z"/></g>
<g transform="translate(203.875,392.875) scale(3.605)"><circle cx="3" cy="3" r="2.5"/></g>
<g transform="translate(350.875,392.875) scale(3.605)"><path d="M6,5.5H3C1.6,5.5,0.5,4.4,0.5,3v0c0-1.4,1.1-2.5,2.5-2.5h3V5.5z"/></g>
<g transform="translate(371.875,392.875) scale(3.605)"><rect y="0.5" width="6" height="5"/></g>
<g transform="translate(392.875,392.875) scale(3.605)"><path d="M3,5.5H0v-5h3c1.4,0,2.5,1.1,2.5,2.5v0C5.5,4.4,4.4,5.5,3,5.5z"/></g>
<g transform="translate(455.875,392.875) scale(3.605)"><circle cx="3" cy="3" r="2.5"/></g>
<g transform="translate(497.875,392.875) scale(3.605)"><circle cx="3" cy="3" r="2.5"/></g>
<g transform="translate(560.875,392.875) scale(3.605)"><path d="M6,5.5H3C1.6,5.5,0.5,4.4,0.5,3v0c0-1.4,1.1-2.5,2.5-2.5h3V5.5z"/></g>
<g transform="translate(581.875,392.875) scale(3.605)"><path d="M3,5.5H0v-5h3c1.4,0,2.5,1.1,2.5,2.5v0C5.5,4.4,4.4,5.5,3,5.5z"/></g>
<g transform="translate(623.875,392.875) scale(3.605)"><circle cx="3" cy="3" r="2.5"/></g>
<g transform="translate(665.875,392.875) scale(3.605)"><circle cx="3" cy="3" r="2.5"/></g>
<g transform="translate(707.875,392.875) scale(3.605)"><circle cx="3" cy="3" r="2.5"/></g>
<g transform="translate(749.875,392.875) scale(3.605)"><circle cx="3" cy="3" r="2.5"/></g>
<g transform="translate(791.875,392.875) scale(3.605)"><circle cx="3" cy="3" r="2.5"/></g>
<g transform="translate(854.875,392.875) scale(3.605)"><circle cx="3" cy="3" r="2.5"/></g>
<g transform="translate(896.875,392.875) scale(3.605)"><path d="M6,5.5H3C1.6,5.5,0.5,4.4,0.5,3v0c0-1.4,1.1-2.5,2.5-2.5h3V5.5z"/></g>
<g transform="translate(917.875,392.875) scale(3.605)"><path d="M3,5.5H0v-5h3c1.4,0,2.5,1.1,2.5,2.5v0C5.5,4.4,4.4,5.5,3,5.5z"/></g>
<g transform="translate(161.875,413.875) scale(3.605)"><path d="M6,5.5H3C1.6,5.5,0.5,4.4,0.5,3v0c0-1.4,1.1-2.5,2.5-2.5h3V5.5z"/></g>
<g transform="translate(182.875,413.875) scale(3.605)"><path d="M3,5.5H0v-5h3c1.4,0,2.5,1.1,2.5,2.5v0C5.5,4.4,4.4,5.5,3,5.5z"/></g>
<g transform="translate(224.875,413.875) scale(3.605)"><circle cx="3" cy="3" r="2.5"/></g>
<g transform="translate(287.875,413.875) scale(3.605)"><path d="M6,5.5H3C1.6,5.5,0.5,4.4,0.5,3v0c0-1.4,1.1-2.5,2.5-2.5h3V5.5z"/></g>
<g transform="translate(308.875,413.875) scale(3.605)"><rect y="0.5" width="6" height="5"/></g>
<g transform="translate(329.875,413.875) scale(3.605)"><rect y="0.5" width="6" height="5"/></g>
<g transform="translate(350.875,413.875) scale(3.605)"><path d="M3,5.5H0v-5h3c1.4,0,2.5,1.1,2.5,2.5v0C5.5,4.4,4.4,5.5,3,5.5z"/></g>
<g transform="translate(413.875,413.875) scale(3.605)"><circle cx="3" cy="3" r="2.5"/></g>
<g transform="translate(455.875,413.875) scale(3.605)"><path d="M6,5.5H3C1.6,5.5,0.5,4.4,0.5,3v0c0-1.4,1.1-2.5,2.5-2.5h3V5.5z"/></g>
<g transform="translate(476.875,413.875) scale(3.605)"><path d="M3,5.5H0v-5h3c1.4,0,2.5,1.1,2.5,2.5v0C5.5,4.4,4.4,5.5,3,5.5z"/></g>
<g transform="translate(560.875,413.875) scale(3.605)"><circle cx="3" cy="3" r="2.5"/></g>
<g transform="translate(602.875,413.875) scale(3.605)"><circle cx="3" cy="3" r="2.5"/></g>
<g transform="translate(644.875,413.875) scale(3.605)"><circle cx="3" cy="3" r="2.5"/></g>
<g transform="translate(686.875,413.875) scale(3.605)"><path d="M6,5.5H3C1.6,5.5,0.5,4.4,0.5,3v0c0-1.4,1.1-2.5,2.5-2.5h3V5.5z"/></g>
<g transform="translate(707.875,413.875) scale(3.605)"><path d="M3,5.5H0v-5h3c1.4,0,2.5,1.1,2.5,2.5v0C5.5,4.4,4.4,5.5,3,5.5z"/></g>
<g transform="translate(770.875,413.875) scale(3.605)"><path d="M6,5.5H3C1.6,5.5,0.5,4.4,0.5,3v0c0-1.4,1.1-2.5,2.5-2.5h3V5.5z"/></g>
<g transform="translate(791.875,413.875) scale(3.605)"><path d="M3,5.5H0v-5h3c1.4,0,2.5,1.1,2.5,2.5v0C5.5,4.4,4.4,5.5,3,5.5z"/></g>
<g transform="translate(833.875,413.875) scale(3.605)"><circle cx="3" cy="3" r="2.5"/></g>
<g transform="translate(875.875,413.875) scale(3.605)"><circle cx="3" cy="3" r="2.5"/></g>
<g transform="translate(917.875,413.875) scale(3.605)"><circle cx="3" cy="3" r="2.5"/></g>
<g transform="translate(161.875,434.875) scale(3.605)"><path d="M6,5.5H3C1.6,5.5,0.5,4.4,0.5,3v0c0-1.4,1.1-2.5,2.5-2.5h3V5.5z"/></g>
<g transform="translate(182.875,434.875) scale(3.605)"><path d="M3,5.5H0v-5h3c1.4,0,2.5,1.1,2.5,2.5v0C5.5,4.4,4.4,5.5,3,5.5z"/></g>
<g transform="translate(266.875,434.875) scale(3.605)"><circle cx="3" cy="3" r="2.5"/></g>
<g transform="translate(308.875,434.875) scale(3.605)"><path d="M6,5.5H3C1.6,5.5,0.5,4.4,0.5,3v0c0-1.4,1.1-2.5,2.5-2.5h3V5.5z"/></g>
<g transform="translate(329.875,434.875) scale(3.605)"><path d="M3,5.5H0v-5h3c1.4,0,2.5,1.1,2.5,2.5v0C5.5,4.4,4.4,5.5,3,5.5z"/></g>
<g transform="translate(371.875,434.875) scale(3.605)"><circle cx="3" cy="3" r="2.5"/></g>
<g transform="translate(413.875,434.875) scale(3.605)"><circle cx="3" cy="3" r="2.5"/></g>
<g transform="translate(455.875,434.875) scale(3.605)"><circle cx="3" cy="3" r="2.5"/></g>
<g transform="translate(497.875,434.875) scale(3.605)"><path d="M6,5.5H3C1.6,5.5,0.5,4.4,0.5,3v0c0-1.4,1.1-2.5,2.5-2.5h3V5.5z"/></g>
<g transform="translate(518.875,434.875) scale(3.605)"><rect y="0.5" width="6" height="5"/></g>
<g transform="translate(539.875,434.875) scale(3.605)"><rect y="0.5" width="6" height="5"/></g>
<g transform="translate(560.875,434.875) scale(3.605)"><rect y="0.5" width="6" height="5"/></g>
<g transform="translate(581.875,434.875) scale(3.605)"><path d="M3,5.5H0v-5h3c1.4,0,2.5,1.1,2.5,2.5v0C5.5,4.4,4.4,5.5,3,5.5z"/></g>
<g transform="translate(623.875,434.875) scale(3.605)"><path d="M6,5.5H3C1.6,5.5,0.5,4.4,0.5,3v0c0-1.4,1.1-2.5,2.5-2.5h3V5.5z"/></g>
<g transform="translate(644.875,434.875) scale(3.605)"><path d="M3,5.5H0v-5h3c1.4,0,2.5,1.1,2.5,2.5v0C5.5,4.4,4.4,5.5,3,5.5z"/></g>
<g transform="translate(686.875,434.875) scale(3.605)"><circle cx="3" cy="3" r="2.5"/></g>
<g transform="translate(749.875,434.875) scale(3.605)"><path d="M6,5.5H3C1.6,5.5,0.5,4.4,0.5,3v0c0-1.4,1.1-2.5,2.5-2.5h3V5.5z"/></g>
<g transform="translate(770.875,434.875) scale(3.605)"><path d="M3,5.5H0v-5h3c1.4,0,2.5,1.1,2.5,2.5v0C5.5,4.4,4.4,5.5,3,5.5z"/></g>
<g transform="translate(812.875,434.875) scale(3.605)"><circle cx="3" cy="3" r="2.5"/></g>
<g transform="translate(854.875,434.875) scale(3.605)"><path d="M6,5.5H3C1.6,5.5,0.5,4.4,0.5,3v0c0-1.4,1.1-2.5,2.5-2.5h3V5.5z"/></g>
<g transform="translate(875.875,434.875) scale(3.605)"><path d="M3,5.5H0v-5h3c1.4,0,2.5,1.1,2.5,2.5v0C5.5,4.4,4.4,5.5,3,5.5z"/></g>
<g transform="translate(161.875,455.875) scale(3.605)"><path d="M6,5.5H3C1.6,5.5,0.5,4.4,0.5,3v0c0-1.4,1.1-2.5,2.5-2.5h3V5.5z"/></g>
<g transform="translate(182.875,455.875) scale(3.605)"><path d="M3,5.5H0v-5h3c1.4,0,2.5,1.1,2.5,2.5v0C5.5,4.4,4.4,5.5,3,5.5z"/></g>
<g transform="translate(245.875,455.875) scale(3.605)"><circle cx="3" cy="3" r="2.5"/></g>
<g transform="translate(287.875,455.875) scale(3.605)"><circle cx="3" cy="3" r="2.5"/></g>
<g transform="translate(329.875,455.875) scale(3.605)"><path d="M6,5.5H3C1.6,5.5,0.5,4.4,0.5,3v0c0-1.4,1.1-2.5,2.5-2.5h3V5.5z"/></g>
<g transform="translate(350.875,455.875) scale(3.605)"><rect y="0.5" width="6" height="5"/></g>
<g transform="translate(371.875,455.875) scale(3.605)"><path d="M3,5.5H0v-5h3c1.4,0,2.5,1.1,2.5,2.5v0C5.5,4.4,4.4,5.5,3,5.5z"/></g>
<g transform="translate(413.875,455.875) scale(3.605)"><circle cx="3" cy="3" r="2.5"/></g>
<g transform="translate(455.875,455.875) scale(3.605)"><path d="M6,5.5H3C1.6,5.5,0.5,4.4,0.5,3v0c0-1.4,1.1-2.5,2.5-2.5h3V5.5z"/></g>
<g transform="translate(476.875,455.875) scale(3.605)"><path d="M3,5.5H0v-5h3c1.4,0,2.5,1.1,2.5,2.5v0C5.5,4.4,4.4,5.5,3,5.5z"/></g>
<g transform="translate(518.875,455.875) scale(3.605)"><path d="M6,5.5H3C1.6,5.5,0.5,4.4,0.5,3v0c0-1.4,1.1-2.5,2.5-2.5h3V5.5z"/></g>
<g transform="translate(539.875,455.875) scale(3.605)"><path d="M3,5.5H0v-5h3c1.4,0,2.5,1.1,2.5,2.5v0C5.5,4.4,4.4,5.5,3,5.5z"/></g>
<g transform="translate(728.875,455.875) scale(3.605)"><circle cx="3" cy="3" r="2.5"/></g>
<g transform="translate(770.875,455.875) scale(3.605)"><circle cx="3" cy="3" r="2.5"/></g>
<g transform="translate(833.875,455.875) scale(3.605)"><path d="M6,5.5H3C1.6,5.5,0.5,4.4,0.5,3v0c0-1.4,1.1-2.5,2.5-2.5h3V5.5z"/></g>
<g transform="translate(854.875,455.875) scale(3.605)"><path d="M3,5.5H0v-5h3c1.4,0,2.5,1.1,2.5,2.5v0C5.5,4.4,4.4,5.5,3,5.5z"/></g>
<g transform="translate(917.875,455.875) scale(3.605)"><circle cx="3" cy="3" r="2.5"/></g>
<g transform="translate(161.875,476.875) scale(3.605)"><path d="M6,5.5H3C1.6,5.5,0.5,4.4,0.5,3v0c0-1.4,1.1-2.5,2.5-2.5h3V5.5z"/></g>
<g transform="translate(182.875,476.875) scale(3.605)"><rect y="0.5" width="6" height="5"/></g>
<g transform="translate(203.875,476.875) scale(3.605)"><rect y="0.5" width="6" height="5"/></g>
<g transform="translate(224.875,476.875) scale(3.605)"><path d="M3,5.5H0v-5h3c1.4,0,2.5,1.1,2.5,2.5v0C5.5,4.4,4.4,5.5,3,5.5z"/></g>
<g transform="translate(308.875,476.875) scale(3.605)"><circle cx="3" cy="3" r="2.5"/></g>
<g transform="translate(350.875,476.875) scale(3.605)"><path d="M6,5.5H3C1.6,5.5,0.5,4.4,0.5,3v0c0-1.4,1.1-2.5,2.5-2.5h3V5.5z"/></g>
<g transform="translate(371.875,476.875) scale(3.605)"><path d="M3,5.5H0v-5h3c1.4,0,2.5,1.1,2.5,2.5v0C5.5,4.4,4.4,5.5,3,5.5z"/></g>
<g transform="translate(434.875,476.875) scale(3.605)"><circle cx="3" cy="3" r="2.5"/></g>
<g transform="translate(476.875,476.875) scale(3.605)"><path d="M6,5.5H3C1.6,5.5,0.5,4.4,0.5,3v0c0-1.4,1.1-2.5,2.5-2.5h3V5.5z"/></g>
<g transform="translate(497.875,476.875) scale(3.605)"><path d="M3,5.5H0v-5h3c1.4,0,2.5,1.1,2.5,2.5v0C5.5,4.4,4.4,5.5,3,5.5z"/></g>
<g transform="translate(539.875,476.875) scale(3.605)"><path d="M6,5.5H3C1.6,5.5,0.5,4.4,0.5,3v0c0-1.4,1.1-2.5,2.5-2.5h3V5.5z"/></g>
<g transform="translate(560.875,476.875) scale(3.605)"><path d="M3,5.5H0v-5h3c1.4,0,2.5,1.1,2.5,2.5v0C5.5,4.4,4.4,5.5,3,5.5z"/></g>
<g transform="translate(602.875,476.875) scale(3.605)"><circle cx="3" cy="3" r="2.5"/></g>
<g transform="translate(644.875,476.875) scale(3.605)"><path d="M6,5.5H3C1.6,5.5,0.5,4.4,0.5,3v0c0-1.4,1.1-2.5,2.5-2.5h3V5.5z"/></g>
<g transform="translate(665.875,476.875) scale(3.605)"><path d="M3,5.5H0v-5h3c1.4,0,2.5,1.1,2.5,2.5v0C5.5,4.4,4.4,5.5,3,5.5z"/></g>
<g transform="translate(707.875,476.875) scale(3.605)"><path d="M6,5.5H3C1.6,5.5,0.5,4.4,0.5,3v0c0-1.4,1.1-2.5,2.5-2.5h3V5.5z"/></g>
<g transform="translate(728.875,476.875) scale(3.605)"><rect y="0.5" width="6" height="5"/></g>
<g transform="translate(749.875,476.875) scale(3.605)"><rect y="0.5" width="6" height="5"/></g>
<g transform="translate(770.875,476.875) scale(3.605)"><path d="M3,5.5H0v-5h3c1.4,0,2.5,1.1,2.5,2.5v0C5.5,4.4,4.4,5.5,3,5.5z"/></g>
<g transform="translate(917.875,476.875) scale(3.605)"><circle cx="3" cy="3" r="2.5"/></g>
<g transform="translate(182.875,497.875) scale(3.605)"><path d="M6,5.5H3C1.6,5.5,0.5,4.4,0.5,3v0c0-1.4,1.1-2.5,2.5-2.5h3V5.5z"/></g>
<g transform="translate(203.875,497.875) scale(3.605)"><path d="M3,5.5H0v-5h3c1.4,0,2.5,1.1,2.5,2.5v0C5.5,4.4,4.4,5.5,3,5.5z"/></g>
<g transform="translate(245.875,497.875) scale(3.605)"><circle cx="3" cy="3" r="2.5"/></g>
<g transform="translate(287.875,497.875) scale(3.605)"><circle cx="3" cy="3" r="2.5"/></g>
<g transform="translate(329.875,497.875) scale(3.605)"><circle cx="3" cy="3" r="2.5"/></g>
<g transform="translate(392.875,497.875) scale(3.605)"><circle cx="3" cy="3" r="2.5"/></g>
<g transform="translate(455.875,497.875) scale(3.605)"><path d="M6,5.5H3C1.6,5.5,0.5,4.4,0.5,3v0c0-1.4,1.1-2.5,2.5-2.5h3V5.5z"/></g>
<g transform="translate(476.875,497.875) scale(3.605)"><rect y="0.5" width="6" height="5"/></g>
<g transform="translate(497.875,497.875) scale(3.605)"><rect y="0.5" width="6" height="5"/></g>
<g transform="translate(518.875,497.875) scale(3.605)"><path d="M3,5.5H0v-5h3c1.4,0,2.5,1.1,2.5,2.5v0C5.5,4.4,4.4,5.5,3,5.5z"/></g>
<g transform="translate(686.875,497.875) scale(3.605)"><path d="M6,5.5H3C1.6,5.5,0.5,4.4,0.5,3v0c0-1.4,1.1-2.5,2.5-2.5h3V5.5z"/></g>
<g transform="translate(707.875,497.875) scale(3.605)"><rect y="0.5" width="6" height="5"/></g>
<g transform="translate(728.875,497.875) scale(3.605)"><path d="M3,5.5H0v-5h3c1.4,0,2.5,1.1,2.5,2.5v0C5.5,4.4,4.4,5.5,3,5.5z"/></g>
<g transform="translate(770.875,497.875) scale(3.605)"><path d="M6,5.5H3C1.6,5.5,0.5,4.4,0.5,3v0c0-1.4,1.1-2.5,2.5-2.5h3V5.5z"/></g>
<g transform="translate(791.875,497.875) scale(3.605)"><path d="M3,5.5H0v-5h3c1.4,0,2.5,1.1,2.5,2.5v0C5.5,4.4,4.4,5.5,3,5.5z"/></g>
<g transform="translate(833.875,497.875) scale(3.605)"><circle cx="3" cy="3" r="2.5"/></g>
<g transform="translate(875.875,497.875) scale(3.605)"><path d="M6,5.5H3C1.6,5.5,0.5,4.4,0.5,3v0c0-1.4,1.1-2.5,2.5-2.5h3V5.5z"/></g>
<g transform="translate(896.875,497.875) scale(3.605)"><rect y="0.5" width="6" height="5"/></g>
<g transform="translate(917.875,497.875) scale(3.605)"><path d="M3,5.5H0v-5h3c1.4,0,2.5,1.1,2.5,2.5v0C5.5,4.4,4.4,5.5,3,5.5z"/></g>
<g transform="translate(161.875,518.875) scale(3.605)"><path d="M6,5.5H3C1.6,5.5,0.5,4.4,0.5,3v0c0-1.4,1.1-2.5,2.5-2.5h3V5.5z"/></g>
<g transform="translate(182.875,518.875) scale(3.605)"><path d="M3,5.5H0v-5h3c1.4,0,2.5,1.1,2.5,2.5v0C5.5,4.4,4.4,5.5,3,5.5z"/></g>
<g transform="translate(350.875,518.875) scale(3.605)"><circle cx="3" cy="3" r="2.5"/></g>
<g transform="translate(434.875,518.875) scale(3.605)"><circle cx="3" cy="3" r="2.5"/></g>
<g transform="translate(539.875,518.875) scale(3.605)"><circle cx="3" cy="3" r="2.5"/></g>
<g transform="translate(581.875,518.875) scale(3.605)"><path d="M6,5.5H3C1.6,5.5,0.5,4.4,0.5,3v0c0-1.4,1.1-2.5,2.5-2.5h3V5.5z"/></g>
<g transform="translate(602.875,518.875) scale(3.605)"><rect y="0.5" width="6" height="5"/></g>
<g transform="translate(623.875,518.875) scale(3.605)"><path d="M3,5.5H0v-5h3c1.4,0,2.5,1.1,2.5,2.5v0C5.5,4.4,4.4,5.5,3,5.5z"/></g>
<g transform="translate(665.875,518.875) scale(3.605)"><circle cx="3" cy="3" r="2.5"/></g>
<g transform="translate(707.875,518.875) scale(3.605)"><circle cx="3" cy="3" r="2.5"/></g>
<g transform="translate(749.875,518.875) scale(3.605)"><path d="M6,5.5H3C1.6,5.5,0.5,4.4,0.5,3v0c0-1.4,1.1-2.5,2.5-2.5h3V5.5z"/></g>
<g transform="translate(770.875,518.875) scale(3.605)"><path d="M3,5.5H0v-5h3c1.4,0,2.5,1.1,2.5,2.5v0C5.5,4.4,4.4,5.5,3,5.5z"/></g>
<g transform="translate(875.875,518.875) scale(3.605)"><circle cx="3" cy="3" r="2.5"/></g>
<g transform="translate(182.875,539.875) scale(3.605)"><circle cx="3" cy="3" r="2.5"/></g>
<g transform="translate(245.875,539.875) scale(3.605)"><path d="M6,5.5H3C1.6,5.5,0.5,4.4,0.5,3v0c0-1.4,1.1-2.5,2.5-2.5h3V5.5z"/></g>
<g transform="translate(266.875,539.875) scale(3.605)"><rect y="0.5" width="6" height="5"/></g>
<g transform="translate(287.875,539.875) scale(3.605)"><path d="M3,5.5H0v-5h3c1.4,0,2.5,1.1,2.5,2.5v0C5.5,4.4,4.4,5.5,3,5.5z"/></g>
<g transform="translate(413.875,539.875) scale(3.605)"><path d="M6,5.5H3C1.6,5.5,0.5,4.4,0.5,3v0c0-1.4,1.1-2.5,2.5-2.5h3V5.5z"/></g>
<g transform="translate(434.875,539.875) scale(3.605)"><path d="M3,5.5H0v-5h3c1.4,0,2.5,1.1,2.5,2.5v0C5.5,4.4,4.4,5.5,3,5.5z"/></g>
<g transform="translate(497.875,539.875) scale(3.605)"><path d="M6,5.5H3C1.6,5.5,0.5,4.4,0.5,3v0c0-1.4,1.1-2.5,2.5-2.5h3V5.5z"/></g>
<g transform="translate(518.875,539.875) scale(3.605)"><path d="M3,5.5H0v-5h3c1.4,0,2.5,1.1,2.5,2.5v0C5.5,4.4,4.4,5.5,3,5.5z"/></g>
<g transform="translate(602.875,539.875) scale(3.605)"><circle cx="3" cy="3" r="2.5"/></g>
<g transform="translate(644.875,539.875) scale(3.605)"><path d="M6,5.5H3C1.6,5.5,0.5,4.4,0.5,3v0c0-1.4,1.1-2.5,2.5-2.5h3V5.5z"/></g>
<g transform="translate(665.875,539.875) scale(3.605)"><rect y="0.5" width="6" height="5"/></g>
<g transform="translate(686.875,539.875) scale(3.605)"><rect y="0.5" width="6" height="5"/></g>
<g transform="translate(707.875,539.875) scale(3.605)"><rect y="0.5" width="6" height="5"/></g>
<g transform="translate(728.875,539.875) scale(3.605)"><path d="M3,5.5H0v-5h3c1.4,0,2.5,1.1,2.5,2.5v0C5.5,4.4,4.4,5.5,3,5.5z"/></g>
<g transform="translate(770.875,539.875) scale(3.605)"><path d="M6,5.5H3C1.6,5.5,0.5,4.4,0.5,3v0c0-1.4,1.1-2.5,2.5-2.5h3V5.5z"/></g>
<g transform="translate(791.875,539.875) scale(3.605)"><rect y="0.5" width="6" height="5"/></g>
<g transform="translate(812.875,539.875) scale(3.605)"><path d="M3,5.5H0v-5h3c1.4,0,2.5,1.1,2.5,2.5v0C5.5,4.4,4.4,5.5,3,5.5z"/></g>
<g transform="translate(854.875,539.875) scale(3.605)"><path d="M6,5.5H3C1.6,5.5,0.5,4.4,0.5,3v0c0-1.4,1.1-2.5,2.5-2.5h3V5.5z"/></g>
<g transform="translate(875.875,539.875) scale(3.605)"><rect y="0.5" width="6" height="5"/></g>
<g transform="translate(896.875,539.875) scale(3.605)"><rect y="0.5" width="6" height="5"/></g>
<g transform="translate(917.875,539.875) scale(3.605)"><path d="M3,5.5H0v-5h3c1.4,0,2.5,1.1,2.5,2.5v0C5.5,4.4,4.4,5.5,3,5.5z"/></g>
<g transform="translate(182.875,560.875) scale(3.605)"><circle cx="3" cy="3" r="2.5"/></g>
<g transform="translate(224.875,560.875) scale(3.605)"><circle cx="3" cy="3" r="2.5"/></g>
<g transform="translate(266.875,560.875) scale(3.605)"><circle cx="3" cy="3" r="2.5"/></g>
<g transform="translate(308.875,560.875) scale(3.605)"><path d="M6,5.5H3C1.6,5.5,0.5,4.4,0.5,3v0c0-1.4,1.1-2.5,2.5-2.5h3V5.5z"/></g>
<g transform="translate(329.875,560.875) scale(3.605)"><rect y="0.5" width="6" height="5"/></g>
<g transform="translate(350.875,560.875) scale(3.605)"><rect y="0.5" width="6" height="5"/></g>
<g transform="translate(371.875,560.875) scale(3.605)"><rect y="0.5" width="6" height="5"/></g>
<g transform="translate(392.875,560.875) scale(3.605)"><rect y="0.5" width="6" height="5"/></g>
<g transform="translate(413.875,560.875) scale(3.605)"><rect y="0.5" width="6" height="5"/></g>
<g transform="translate(434.875,560.875) scale(3.605)"><rect y="0.5" width="6" height="5"/></g>
<g transform="translate(455.875,560.875) scale(3.605)"><rect y="0.5" width="6" height="5"/></g>
<g transform="translate(476.875,560.875) scale(3.605)"><rect y="0.5" width="6" height="5"/></g>
<g transform="translate(497.875,560.875) scale(3.605)"><rect y="0.5" width="6" height="5"/></g>
<g transform="translate(518.875,560.875) scale(3.605)"><path d="M3,5.5H0v-5h3c1.4,0,2.5,1.1,2.5,2.5v0C5.5,4.4,4.4,5.5,3,5.5z"/></g>
<g transform="translate(560.875,560.875) scale(3.605)"><path d="M6,5.5H3C1.6,5.5,0.5,4.4,0.5,3v0c0-1.4,1.1-2.5,2.5-2.5h3V5.5z"/></g>
<g transform="translate(581.875,560.875) scale(3.605)"><path d="M3,5.5H0v-5h3c1.4,0,2.5,1.1,2.5,2.5v0C5.5,4.4,4.4,5.5,3,5.5z"/></g>
<g transform="translate(644.875,560.875) scale(3.605)"><circle cx="3" cy="3" r="2.5"/></g>
<g transform="translate(749.875,560.875) scale(3.605)"><path d="M6,5.5H3C1.6,5.5,0.5,4.4,0.5,3v0c0-1.4,1.1-2.5,2.5-2.5h3V5.5z"/></g>
<g transform="translate(770.875,560.875) scale(3.605)"><rect y="0.5" width="6" height="5"/></g>
<g transform="translate(791.875,560.875) scale(3.605)"><path d="M3,5.5H0v-5h3c1.4,0,2.5,1.1,2.5,2.5v0C5.5,4.4,4.4,5.5,3,5.5z"/></g>
<g transform="translate(833.875,560.875) scale(3.605)"><circle cx="3" cy="3" r="2.5"/></g>
<g transform="translate(896.875,560.875) scale(3.605)"><circle cx="3" cy="3" r="2.5"/></g>
<g transform="translate(161.875,581.875) scale(3.605)"><circle cx="3" cy="3" r="2.5"/></g>
<g transform="translate(245.875,581.875) scale(3.605)"><path d="M6,5.5H3C1.6,5.5,0.5,4.4,0.5,3v0c0-1.4,1.1-2.5,2.5-2.5h3V5.5z"/></g>
<g transform="translate(266.875,581.875) scale(3.605)"><rect y="0.5" width="6" height="5"/></g>
<g transform="translate(287.875,581.875) scale(3.605)"><path d="M3,5.5H0v-5h3c1.4,0,2.5,1.1,2.5,2.5v0C5.5,4.4,4.4,5.5,3,5.5z"/></g>
<g transform="translate(329.875,581.875) scale(3.605)"><circle cx="3" cy="3" r="2.5"/></g>
<g transform="translate(392.875,581.875) scale(3.605)"><circle cx="3" cy="3" r="2.5"/></g>
<g transform="translate(434.875,581.875) scale(3.605)"><path d="M6,5.5H3C1.6,5.5,0.5,4.4,0.5,3v0c0-1.4,1.1-2.5,2.5-2.5h3V5.5z"/></g>
<g transform="translate(455.875,581.875) scale(3.605)"><path d="M3,5.5H0v-5h3c1.4,0,2.5,1.1,2.5,2.5v0C5.5,4.4,4.4,5.5,3,5.5z"/></g>
<g transform="translate(497.875,581.875) scale(3.605)"><circle cx="3" cy="3" r="2.5"/></g>
<g transform="translate(602.875,581.875) scale(3.605)"><circle cx="3" cy="3" r="2.5"/></g>
<g transform="translate(686.875,581.875) scale(3.605)"><path d="M6,5.5H3C1.6,5.5,0.5,4.4,0.5,3v0c0-1.4,1.1-2.5,2.5-2.5h3V5.5z"/></g>
<g transform="translate(707.875,581.875) scale(3.605)"><rect y="0.5" width="6" height="5"/></g>
<g transform="translate(728.875,581.875) scale(3.605)"><path d="M3,5.5H0v-5h3c1.4,0,2.5,1.1,2.5,2.5v0C5.5,4.4,4.4,5.5,3,5.5z"/></g>
<g transform="translate(791.875,581.875) scale(3.605)"><path d="M6,5.5H3C1.6,5.5,0.5,4.4,0.5,3v0c0-1.4,1.1-2.5,2.5-2.5h3V5.5z"/></g>
<g transform="translate(812.875,581.875) scale(3.605)"><rect y="0.5" width="6" height="5"/></g>
<g transform="translate(833.875,581.875) scale(3.605)"><rect y="0.5" width="6" height="5"/></g>
<g transform="translate(854.875,581.875) scale(3.605)"><rect y="0.5" width="6" height="5"/></g>
<g transform="translate(875.875,581.875) scale(3.605)"><path d="M3,5.5H0v-5h3c1.4,0,2.5,1.1,2.5,2.5v0C5.5,4.4,4.4,5.5,3,5.5z"/></g>
<g transform="translate(917.875,581.875) scale(3.605)"><circle cx="3" cy="3" r="2.5"/></g>
<g transform="translate(182.875,602.875) scale(3.605)"><path d="M6,5.5H3C1.6,5.5,0.5,4.4,0.5,3v0c0-1.4,1.1-2.5,2.5-2.5h3V5.5z"/></g>
<g transform="translate(203.875,602.875) scale(3.605)"><rect y="0.5" width="6" height="5"/></g>
<g transform="translate(224.875,602.875) scale(3.605)"><path d="M3,5.5H0v-5h3c1.4,0,2.5,1.1,2.5,2.5v0C5.5,4.4,4.4,5.5,3,5.5z"/></g>
<g transform="translate(350.875,602.875) scale(3.605)"><circle cx="3" cy="3" r="2.5"/></g>
<g transform="translate(392.875,602.875) scale(3.605)"><path d="M6,5.5H3C1.6,5.5,0.5,4.4,0.5,3v0c0-1.4,1.1-2.5,2.5-2.5h3V5.5z"/></g>
<g transform="translate(413.875,602.875) scale(3.605)"><path d="M3,5.5H0v-5h3c1.4,0,2.5,1.1,2.5,2.5v0C5.5,4.4,4.4,5.5,3,5.5z"/></g>
<g transform="translate(455.875,602.875) scale(3.605)"><circle cx="3" cy="3" r="2.5"/></g>
<g transform="translate(497.875,602.875) scale(3.605)"><path d="M6,5.5H3C1.6,5.5,0.5,4.4,0.5,3v0c0-1.4,1.1-2.5,2.5-2.5h3V5.5z"/></g>
<g transform="translate(518.875,602.875) scale(3.605)"><path d="M3,5.5H0v-5h3c1.4,0,2.5,1.1,2.5,2.5v0C5.5,4.4,4.4,5.5,3,5.5z"/></g>
<g transform="translate(560.875,602.875) scale(3.605)"><circle cx="3" cy="3" r="2.5"/></g>
<g transform="translate(644.875,602.875) scale(3.605)"><path d="M6,5.5H3C1.6,5.5,0.5,4.4,0.5,3v0c0-1.4,1.1-2.5,2.5-2.5h3V5.5z"/></g>
<g transform="translate(665.875,602.875) scale(3.605)"><rect y="0.5" width="6" height="5"/></g>
<g transform="translate(686.875,602.875) scale(3.605)"><path d="M3,5.5H0v-5h3c1.4,0,2.5,1.1,2.5,2.5v0C5.5,4.4,4.4,5.5,3,5.5z"/></g>
<g transform="translate(812.875,602.875) scale(3.605)"><circle cx="3" cy="3" r="2.5"/></g>
<g transform="translate(854.875,602.875) scale(3.605)"><path d="M6,5.5H3C1.6,5.5,0.5,4.4,0.5,3v0c0-1.4,1.1-2.5,2.5-2.5h3V5.5z"/></g>
<g transform="translate(875.875,602.875) scale(3.605)"><path d="M3,5.5H0v-5h3c1.4,0,2.5,1.1,2.5,2.5v0C5.5,4.4,4.4,5.5,3,5.5z"/></g>
<g transform="translate(161.875,623.875) scale(3.605)"><circle cx="3" cy="3" r="2.5"/></g>
<g transform="translate(203.875,623.875) scale(3.605)"><path d="M6,5.5H3C1.6,5.5,0.5,4.4,0.5,3v0c0-1.4,1.1-2.5,2.5-2.5h3V5.5z"/></g>
<g transform="translate(224.875,623.875) scale(3.605)"><rect y="0.5" width="6" height="5"/></g>
<g transform="translate(245.875,623.875) scale(3.605)"><rect y="0.5" width="6" height="5"/></g>
<g transform="translate(266.875,623.875) scale(3.605)"><rect y="0.5" width="6" height="5"/></g>
<g transform="translate(287.875,623.875) scale(3.605)"><rect y="0.5" width="6" height="5"/></g>
<g transform="translate(308.875,623.875) scale(3.605)"><path d="M3,5.5H0v-5h3c1.4,0,2.5,1.1,2.5,2.5v0C5.5,4.4,4.4,5.5,3,5.5z"/></g>
<g transform="translate(350.875,623.875) scale(3.605)"><circle cx="3" cy="3" r="2.5"/></g>
<g transform="translate(392.875,623.875) scale(3.605)"><circle cx="3" cy="3" r="2.5"/></g>
<g transform="translate(434.875,623.875) scale(3.605)"><path d="M6,5.5H3C1.6,5.5,0.5,4.4,0.5,3v0c0-1.4,1.1-2.5,2.5-2.5h3V5.5z"/></g>
<g transform="translate(455.875,623.875) scale(3.605)"><rect y="0.5" width="6" height="5"/></g>
<g transform="translate(476.875,623.875) scale(3.605)"><path d="M3,5.5H0v-5h3c1.4,0,2.5,1.1,2.5,2.5v0C5.5,4.4,4.4,5.5,3,5.5z"/></g>
<g transform="translate(518.875,623.875) scale(3.605)"><circle cx="3" cy="3" r="2.5"/></g>
<g transform="translate(560.875,623.875) scale(3.605)"><circle cx="3" cy="3" r="2.5"/></g>
<g transform="translate(623.875,623.875) scale(3.605)"><path d="M6,5.5H3C1.6,5.5,0.5,4.4,0.5,3v0c0-1.4,1.1-2.5,2.5-2.5h3V5.5z"/></g>
<g transform="translate(644.875,623.875) scale(3.605)"><rect y="0.5" width="6" height="5"/></g>
<g transform="translate(665.875,623.875) scale(3.605)"><rect y="0.5" width="6" height="5"/></g>
<g transform="translate(686.875,623.875) scale(3.605)"><rect y="0.5" width="6" height="5"/></g>
<g transform="translate(707.875,623.875) scale(3.605)"><rect y="0.5" width="6" height="5"/></g>
<g transform="translate(728.875,623.875) scale(3.605)"><path d="M3,5.5H0v-5h3c1.4,0,2.5,1.1,2.5,2.5v0C5.5,4.4,4.4,5.5,3,5.5z"/></g>
<g transform="translate(770.875,623.875) scale(3.605)"><circle cx="3" cy="3" r="2.5"/></g>
<g transform="translate(854.875,623.875) scale(3.605)"><path d="M6,5.5H3C1.6,5.5,0.5,4.4,0.5,3v0c0-1.4,1.1-2.5,2.5-2.5h3V5.5z"/></g>
<g transform="translate(875.875,623.875) scale(3.605)"><path d="M3,5.5H0v-5h3c1.4,0,2.5,1.1,2.5,2.5v0C5.5,4.4,4.4,5.5,3,5.5z"/></g>
<g transform="translate(917.875,623.875) scale(3.605)"><circle cx="3" cy="3" r="2.5"/></g>
<g transform="translate(182.875,644.875) scale(3.605)"><circle cx="3" cy="3" r="2.5"/></g>
<g transform="translate(224.875,644.875) scale(3.605)"><circle cx="3" cy="3" r="2.5"/></g>
<g transform="translate(308.875,644.875) scale(3.605)"><circle cx="3" cy="3" r="2.5"/></g>
<g transform="translate(371.875,644.875) scale(3.605)"><circle cx="3" cy="3" r="2.5"/></g>
<g transform="translate(413.875,644.875) scale(3.605)"><circle cx="3" cy="3" r="2.5"/></g>
<g transform="translate(476.875,644.875) scale(3.605)"><circle cx="3" cy="3" r="2.5"/></g>
<g transform="translate(602.875,644.875) scale(3.605)"><circle cx="3" cy="3" r="2.5"/></g>
<g transform="translate(686.875,644.875) scale(3.605)"><circle cx="3" cy="3" r="2.5"/></g>
<g transform="translate(812.875,644.875) scale(3.605)"><circle cx="3" cy="3" r="2.5"/></g>
<g transform="translate(896.875,644.875) scale(3.605)"><circle cx="3" cy="3" r="2.5"/></g>
<g transform="translate(161.875,665.875) scale(3.605)"><path d="M6,5.5H3C1.6,5.5,0.5,4.4,0.5,3v0c0-1.4,1.1-2.5,2.5-2.5h3V5.5z"/></g>
<g transform="translate(182.875,665.875) scale(3.605)"><rect y="0.5" width="6" height="5"/></g>
<g transform="translate(203.875,665.875) scale(3.605)"><path d="M3,5.5H0v-5h3c1.4,0,2.5,1.1,2.5,2.5v0C5.5,4.4,4.4,5.5,3,5.5z"/></g>
<g transform="translate(266.875,665.875) scale(3.605)"><path d="M6,5.5H3C1.6,5.5,0.5,4.4,0.5,3v0c0-1.4,1.1-2.5,2.5-2.5h3V5.5z"/></g>
<g transform="translate(287.875,665.875) scale(3.605)"><path d="M3,5.5H0v-5h3c1.4,0,2.5,1.1,2.5,2.5v0C5.5,4.4,4.4,5.5,3,5.5z"/></g>
<g transform="translate(329.875,665.875) scale(3.605)"><path d="M6,5.5H3C1.6,5.5,0.5,4.4,0.5,3v0c0-1.4,1.1-2.5,2.5-2.5h3V5.5z"/></g>
<g transform="translate(350.875,665.875) scale(3.605)"><rect y="0.5" width="6" height="5"/></g>
<g transform="translate(371.875,665.875) scale(3.605)"><path d="M3,5.5H0v-5h3c1.4,0,2.5,1.1,2.5,2.5v0C5.5,4.4,4.4,5.5,3,5.5z"/></g>
<g transform="translate(434.875,665.875) scale(3.605)"><path d="M6,5.5H3C1.6,5.5,0.5,4.4,0.5,3v0c0-1.4,1.1-2.5,2.5-2.5h3V5.5z"/></g>
<g transform="translate(455.875,665.875) scale(3.605)"><path d="M3,5.5H0v-5h3c1.4,0,2.5,1.1,2.5,2.5v0C5.5,4.4,4.4,5.5,3,5.5z"/></g>
<g transform="translate(539.875,665.875) scale(3.605)"><circle cx="3" cy="3" r="2.5"/></g>
<g transform="translate(581.875,665.875) scale(3.605)"><path d="M6,5.5H3C1.6,5.5,0.5,4.4,0.5,3v0c0-1.4,1.1-2.5,2.5-2.5h3V5.5z"/></g>
<g transform="translate(602.875,665.875) scale(3.605)"><rect y="0.5" width="6" height="5"/></g>
<g transform="translate(623.875,665.875) scale(3.605)"><path d="M3,5.5H0v-5h3c1.4,0,2.5,1.1,2.5,2.5v0C5.5,4.4,4.4,5.5,3,5.5z"/></g>
<g transform="translate(665.875,665.875) scale(3.605)"><circle cx="3" cy="3" r="2.5"/></g>
<g transform="translate(707.875,665.875) scale(3.605)"><circle cx="3" cy="3" r="2.5"/></g>
<g transform="translate(749.875,665.875) scale(3.605)"><path d="M6,5.5H3C1.6,5.5,0.5,4.4,0.5,3v0c0-1.4,1.1-2.5,2.5-2.5h3V5.5z"/></g>
<g transform="translate(770.875,665.875) scale(3.605)"><path d="M3,5.5H0v-5h3c1.4,0,2.5,1.1,2.5,2.5v0C5.5,4.4,4.4,5.5,3,5.5z"/></g>
<g transform="translate(875.875,665.875) scale(3.605)"><circle cx="3" cy="3" r="2.5"/></g>
<g transform="translate(917.875,665.875) scale(3.605)"><circle cx="3" cy="3" r="2.5"/></g>
<g transform="translate(161.875,686.875) scale(3.605)"><circle cx="3" cy="3" r="2.5"/></g>
<g transform="translate(224.875,686.875) scale(3.605)"><path d="M6,5.5H3C1.6,5.5,0.5,4.4,0.5,3v0c0-1.4,1.1-2.5,2.5-2.5h3V5.5z"/></g>
<g transform="translate(245.875,686.875) scale(3.605)"><rect y="0.5" width="6" height="5"/></g>
<g transform="translate(266.875,686.875) scale(3.605)"><path d="M3,5.5H0v-5h3c1.4,0,2.5,1.1,2.5,2.5v0C5.5,4.4,4.4,5.5,3,5.5z"/></g>
<g transform="translate(308.875,686.875) scale(3.605)"><circle cx="3" cy="3" r="2.5"/></g>
<g transform="translate(371.875,686.875) scale(3.605)"><path d="M6,5.5H3C1.6,5.5,0.5,4.4,0.5,3v0c0-1.4,1.1-2.5,2.5-2.5h3V5.5z"/></g>
<g transform="translate(392.875,686.875) scale(3.605)"><path d="M3,5.5H0v-5h3c1.4,0,2.5,1.1,2.5,2.5v0C5.5,4.4,4.4,5.5,3,5.5z"/></g>
<g transform="translate(434.875,686.875) scale(3.605)"><path d="M6,5.5H3C1.6,5.5,0.5,4.4,0.5,3v0c0-1.4,1.1-2.5,2.5-2.5h3V5.5z"/></g>
<g transform="translate(455.875,686.875) scale(3.605)"><path d="M3,5.5H0v-5h3c1.4,0,2.5,1.1,2.5,2.5v0C5.5,4.4,4.4,5.5,3,5.5z"/></g>
<g transform="translate(497.875,686.875) scale(3.605)"><circle cx="3" cy="3" r="2.5"/></g>
<g transform="translate(539.875,686.875) scale(3.605)"><path d="M6,5.5H3C1.6,5.5,0.5,4.4,0.5,3v0c0-1.4,1.1-2.5,2.5-2.5h3V5.5z"/></g>
<g transform="translate(560.875,686.875) scale(3.605)"><path d="M3,5.5H0v-5h3c1.4,0,2.5,1.1,2.5,2.5v0C5.5,4.4,4.4,5.5,3,5.5z"/></g>
<g transform="translate(602.875,686.875) scale(3.605)"><path d="M6,5.5H3C1.6,5.5,0.5,4.4,0.5,3v0c0-1.4,1.1-2.5,2.5-2.5h3V5.5z"/></g>
<g transform="translate(623.875,686.875) scale(3.605)"><path d="M3,5.5H0v-5h3c1.4,0,2.5,1.1,2.5,2.5v0C5.5,4.4,4.4,5.5,3,5.5z"/></g>
<g transform="translate(728.875,686.875) scale(3.605)"><circle cx="3" cy="3" r="2.5"/></g>
<g transform="translate(791.875,686.875) scale(3.605)"><path d="M6,5.5H3C1.6,5.5,0.5,4.4,0.5,3v0c0-1.4,1.1-2.5,2.5-2.5h3V5.5z"/></g>
<g transform="translate(812.875,686.875) scale(3.605)"><rect y="0.5" width="6" height="5"/></g>
<g transform="translate(833.875,686.875) scale(3.605)"><rect y="0.5" width="6" height="5"/></g>
<g transform="translate(854.875,686.875) scale(3.605)"><path d="M3,5.5H0v-5h3c1.4,0,2.5,1.1,2.5,2.5v0C5.5,4.4,4.4,5.5,3,5.5z"/></g>
<g transform="translate(161.875,707.875) scale(3.605)"><circle cx="3" cy="3" r="2.5"/></g>
<g transform="translate(203.875,707.875) scale(3.605)"><path d="M6,5.5H3C1.6,5.5,0.5,4.4,0.5,3v0c0-1.4,1.1-2.5,2.5-2.5h3V5.5z"/></g>
<g transform="translate(224.875,707.875) scale(3.605)"><path d="M3,5.5H0v-5h3c1.4,0,2.5,1.1,2.5,2.5v0C5.5,4.4,4.4,5.5,3,5.5z"/></g>
<g transform="translate(266.875,707.875) scale(3.605)"><path d="M6,5.5H3C1.6,5.5,0.5,4.4,0.5,3v0c0-1.4,1.1-2.5,2.5-2.5h3V5.5z"/></g>
<g transform="translate(287.875,707.875) scale(3.605)"><rect y="0.5" width="6" height="5"/></g>
<g transform="translate(308.875,707.875) scale(3.605)"><rect y="0.5" width="6" height="5"/></g>
<g transform="translate(329.875,707.875) scale(3.605)"><rect y="0.5" width="6" height="5"/></g>
<g transform="translate(350.875,707.875) scale(3.605)"><rect y="0.5" width="6" height="5"/></g>
<g transform="translate(371.875,707.875) scale(3.605)"><path d="M3,5.5H0v-5h3c1.4,0,2.5,1.1,2.5,2.5v0C5.5,4.4,4.4,5.5,3,5.5z"/></g>
<g transform="translate(413.875,707.875) scale(3.605)"><circle cx="3" cy="3" r="2.5"/></g>
<g transform="translate(476.875,707.875) scale(3.605)"><circle cx="3" cy="3" r="2.5"/></g>
<g transform="translate(518.875,707.875) scale(3.605)"><path d="M6,5.5H3C1.6,5.5,0.5,4.4,0.5,3v0c0-1.4,1.1-2.5,2.5-2.5h3V5.5z"/></g>
<g transform="translate(539.875,707.875) scale(3.605)"><path d="M3,5.5H0v-5h3c1.4,0,2.5,1.1,2.5,2.5v0C5.5,4.4,4.4,5.5,3,5.5z"/></g>
<g transform="translate(644.875,707.875) scale(3.605)"><path d="M6,5.5H3C1.6,5.5,0.5,4.4,0.5,3v0c0-1.4,1.1-2.5,2.5-2.5h3V5.5z"/></g>
<g transform="translate(665.875,707.875) scale(3.605)"><rect y="0.5" width="6" height="5"/></g>
<g transform="translate(686.875,707.875) scale(3.605)"><path d="M3,5.5H0v-5h3c1.4,0,2.5,1.1,2.5,2.5v0C5.5,4.4,4.4,5.5,3,5.5z"/></g>
<g transform="translate(728.875,707.875) scale(3.605)"><path d="M6,5.5H3C1.6,5.5,0.5,4.4,0.5,3v0c0-1.4,1.1-2.5,2.5-2.5h3V5.5z"/></g>
<g transform="translate(749.875,707.875) scale(3.605)"><path d="M3,5.5H0v-5h3c1.4,0,2.5,1.1,2.5,2.5v0C5.5,4.4,4.4,5.5,3,5.5z"/></g>
<g transform="translate(791.875,707.875) scale(3.605)"><circle cx="3" cy="3" r="2.5"/></g>
<g transform="translate(833.875,707.875) scale(3.605)"><circle cx="3" cy="3" r="2.5"/></g>
<g transform="translate(896.875,707.875) scale(3.605)"><path d="M6,5.5H3C1.6,5.5,0.5,4.4,0.5,3v0c0-1.4,1.1-2.5,2.5-2.5h3V5.5z"/></g>
<g transform="translate(917.875,707.875) scale(3.605)"><path d="M3,5.5H0v-5h3c1.4,0,2.5,1.1,2.5,2.5v0C5.5,4.4,4.4,5.5,3,5.5z"/></g>
<g transform="translate(161.875,728.875) scale(3.605)"><circle cx="3" cy="3" r="2.5"/></g>
<g transform="translate(203.875,728.875) scale(3.605)"><path d="M6,5.5H3C1.6,5.5,0.5,4.4,0.5,3v0c0-1.4,1.1-2.5,2.5-2.5h3V5.5z"/></g>
<g transform="translate(224.875,728.875) scale(3.605)"><rect y="0.5" width="6" height="5"/></g>
<g transform="translate(245.875,728.875) scale(3.605)"><path d="M3,5.5H0v-5h3c1.4,0,2.5,1.1,2.5,2.5v0C5.5,4.4,4.4,5.5,3,5.5z"/></g>
<g transform="translate(308.875,728.875) scale(3.605)"><circle cx="3" cy="3" r="2.5"/></g>
<g transform="translate(371.875,728.875) scale(3.605)"><circle cx="3" cy="3" r="2.5"/></g>
<g transform="translate(434.875,728.875) scale(3.605)"><circle cx="3" cy="3" r="2.5"/></g>
<g transform="translate(602.875,728.875) scale(3.605)"><path d="M6,5.5H3C1.6,5.5,0.5,4.4,0.5,3v0c0-1.4,1.1-2.5,2.5-2.5h3V5.5z"/></g>
<g transform="translate(623.875,728.875) scale(3.605)"><rect y="0.5" width="6" height="5"/></g>
<g transform="translate(644.875,728.875) scale(3.605)"><path d="M3,5.5H0v-5h3c1.4,0,2.5,1.1,2.5,2.5v0C5.5,4.4,4.4,5.5,3,5.5z"/></g>
<g transform="translate(728.875,728.875) scale(3.605)"><circle cx="3" cy="3" r="2.5"/></g>
<g transform="translate(770.875,728.875) scale(3.605)"><circle cx="3" cy="3" r="2.5"/></g>
<g transform="translate(812.875,728.875) scale(3.605)"><path d="M6,5.5H3C1.6,5.5,0.5,4.4,0.5,3v0c0-1.4,1.1-2.5,2.5-2.5h3V5.5z"/></g>
<g transform="translate(833.875,728.875) scale(3.605)"><rect y="0.5" width="6" height="5"/></g>
<g transform="translate(854.875,728.875) scale(3.605)"><path d="M3,5.5H0v-5h3c1.4,0,2.5,1.1,2.5,2.5v0C5.5,4.4,4.4,5.5,3,5.5z"/></g>
<g transform="translate(896.875,728.875) scale(3.605)"><path d="M6,5.5H3C1.6,5.5,0.5,4.4,0.5,3v0c0-1.4,1.1-2.5,2.5-2.5h3V5.5z"/></g>
<g transform="translate(917.875,728.875) scale(3.605)"><path d="M3,5.5H0v-5h3c1.4,0,2.5,1.1,2.5,2.5v0C5.5,4.4,4.4,5.5,3,5.5z"/></g>
<g transform="translate(161.875,749.875) scale(3.605)"><circle cx="3" cy="3" r="2.5"/></g>
<g transform="translate(224.875,749.875) scale(3.605)"><circle cx="3" cy="3" r="2.5"/></g>
<g transform="translate(287.875,749.875) scale(3.605)"><path d="M6,5.5H3C1.6,5.5,0.5,4.4,0.5,3v0c0-1.4,1.1-2.5,2.5-2.5h3V5.5z"/></g>
<g transform="translate(308.875,749.875) scale(3.605)"><path d="M3,5.5H0v-5h3c1.4,0,2.5,1.1,2.5,2.5v0C5.5,4.4,4.4,5.5,3,5.5z"/></g>
<g transform="translate(350.875,749.875) scale(3.605)"><path d="M6,5.5H3C1.6,5.5,0.5,4.4,0.5,3v0c0-1.4,1.1-2.5,2.5-2.5h3V5.5z"/></g>
<g transform="translate(371.875,749.875) scale(3.605)"><rect y="0.5" width="6" height="5"/></g>
<g transform="translate(392.875,749.875) scale(3.605)"><rect y="0.5" width="6" height="5"/></g>
<g transform="translate(413.875,749.875) scale(3.605)"><path d="M3,5.5H0v-5h3c1.4,0,2.5,1.1,2.5,2.5v0C5.5,4.4,4.4,5.5,3,5.5z"/></g>
<g transform="translate(476.875,749.875) scale(3.605)"><path d="M6,5.5H3C1.6,5.5,0.5,4.4,0.5,3v0c0-1.4,1.1-2.5,2.5-2.5h3V5.5z"/></g>
<g transform="translate(497.875,749.875) scale(3.605)"><rect y="0.5" width="6" height="5"/></g>
<g transform="translate(518.875,749.875) scale(3.605)"><rect y="0.5" width="6" height="5"/></g>
<g transform="translate(539.875,749.875) scale(3.605)"><path d="M3,5.5H0v-5h3c1.4,0,2.5,1.1,2.5,2.5v0C5.5,4.4,4.4,5.5,3,5.5z"/></g>
<g transform="translate(581.875,749.875) scale(3.605)"><path d="M6,5.5H3C1.6,5.5,0.5,4.4,0.5,3v0c0-1.4,1.1-2.5,2.5-2.5h3V5.5z"/></g>
<g transform="translate(602.875,749.875) scale(3.605)"><rect y="0.5" width="6" height="5"/></g>
<g transform="translate(623.875,749.875) scale(3.605)"><rect y="0.5" width="6" height="5"/></g>
<g transform="translate(644.875,749.875) scale(3.605)"><path d="M3,5.5H0v-5h3c1.4,0,2.5,1.1,2.5,2.5v0C5.5,4.4,4.4,5.5,3,5.5z"/></g>
<g transform="translate(686.875,749.875) scale(3.605)"><path d="M6,5.5H3C1.6,5.5,0.5,4.4,0.5,3v0c0-1.4,1.1-2.5,2.5-2.5h3V5.5z"/></g>
<g transform="translate(707.875,749.875) scale(3.605)"><rect y="0.5" width="6" height="5"/></g>
<g transform="translate(728.875,749.875) scale(3.605)"><rect y="0.5" width="6" height="5"/></g>
<g transform="translate(749.875,749.875) scale(3.605)"><rect y="0.5" width="6" height="5"/></g>
<g transform="translate(770.875,749.875) scale(3.605)"><rect y="0.5" width="6" height="5"/></g>
<g transform="translate(791.875,749.875) scale(3.605)"><rect y="0.5" width="6" height="5"/></g>
<g transform="translate(812.875,749.875) scale(3.605)"><rect y="0.5" width="6" height="5"/></g>
<g transform="translate(833.875,749.875) scale(3.605)"><rect y="0.5" width="6" height="5"/></g>
<g transform="translate(854.875,749.875) scale(3.605)"><path d="M3,5.5H0v-5h3c1.4,0,2.5,1.1,2.5,2.5v0C5.5,4.4,4.4,5.5,3,5.5z"/></g>
<g transform="translate(896.875,749.875) scale(3.605)"><circle cx="3" cy="3" r="2.5"/></g>
<g transform="translate(329.875,770.875) scale(3.605)"><path d="M6,5.5H3C1.6,5.5,0.5,4.4,0.5,3v0c0-1.4,1.1-2.5,2.5-2.5h3V5.5z"/></g>
<g transform="translate(350.875,770.875) scale(3.605)"><rect y="0.5" width="6" height="5"/></g>
<g transform="translate(371.875,770.875) scale(3.605)"><rect y="0.5" width="6" height="5"/></g>
<g transform="translate(392.875,770.875) scale(3.605)"><rect y="0.5" width="6" height="5"/></g>
<g transform="translate(413.875,770.875) scale(3.605)"><path d="M3,5.5H0v-5h3c1.4,0,2.5,1.1,2.5,2.5v0C5.5,4.4,4.4,5.5,3,5.5z"/></g>
<g transform="translate(455.875,770.875) scale(3.605)"><circle cx="3" cy="3" r="2.5"/></g>
<g transform="translate(581.875,770.875) scale(3.605)"><path d="M6,5.5H3C1.6,5.5,0.5,4.4,0.5,3v0c0-1.4,1.1-2.5,2.5-2.5h3V5.5z"/></g>
<g transform="translate(602.875,770.875) scale(3.605)"><path d="M3,5.5H0v-5h3c1.4,0,2.5,1.1,2.5,2.5v0C5.5,4.4,4.4,5.5,3,5.5z"/></g>
<g transform="translate(644.875,770.875) scale(3.605)"><circle cx="3" cy="3" r="2.5"/></g>
<g transform="translate(728.875,770.875) scale(3.605)"><path d="M6,5.5H3C1.6,5.5,0.5,4.4,0.5,3v0c0-1.4,1.1-2.5,2.5-2.5h3V5.5z"/></g>
<g transform="translate(749.875,770.875) scale(3.605)"><path d="M3,5.5H0v-5h3c1.4,0,2.5,1.1,2.5,2.5v0C5.5,4.4,4.4,5.5,3,5.5z"/></g>
<g transform="translate(833.875,770.875) scale(3.605)"><circle cx="3" cy="3" r="2.5"/></g>
<g transform="translate(896.875,770.875) scale(3.605)"><circle cx="3" cy="3" r="2.5"/></g>
<g transform="translate(350.875,791.875) scale(3.605)"><circle cx="3" cy="3" r="2.5"/></g>
<g transform="translate(413.875,791.875) scale(3.605)"><path d="M6,5.5H3C1.6,5.5,0.5,4.4,0.5,3v0c0-1.4,1.1-2.5,2.5-2.5h3V5.5z"/></g>
<g transform="translate(434.875,791.875) scale(3.605)"><rect y="0.5" width="6" height="5"/></g>
<g transform="translate(455.875,791.875) scale(3.605)"><rect y="0.5" width="6" height="5"/></g>
<g transform="translate(476.875,791.875) scale(3.605)"><path d="M3,5.5H0v-5h3c1.4,0,2.5,1.1,2.5,2.5v0C5.5,4.4,4.4,5.5,3,5.5z"/></g>
<g transform="translate(665.875,791.875) scale(3.605)"><path d="M6,5.5H3C1.6,5.5,0.5,4.4,0.5,3v0c0-1.4,1.1-2.5,2.5-2.5h3V5.5z"/></g>
<g transform="translate(686.875,791.875) scale(3.605)"><path d="M3,5.5H0v-5h3c1.4,0,2.5,1.1,2.5,2.5v0C5.5,4.4,4.4,5.5,3,5.5z"/></g>
<g transform="translate(749.875,791.875) scale(3.605)"><circle cx="3" cy="3" r="2.5"/></g>
<g transform="translate(791.875,791.875) scale(3.605)"><circle cx="3" cy="3" r="2.5"/></g>
<g transform="translate(833.875,791.875) scale(3.605)"><path d="M6,5.5H3C1.6,5.5,0.5,4.4,0.5,3v0c0-1.4,1.1-2.5,2.5-2.5h3V5.5z"/></g>
<g transform="translate(854.875,791.875) scale(3.605)"><path d="M3,5.5H0v-5h3c1.4,0,2.5,1.1,2.5,2.5v0C5.5,4.4,4.4,5.5,3,5.5z"/></g>
<g transform="translate(896.875,791.875) scale(3.605)"><path d="M6,5.5H3C1.6,5.5,0.5,4.4,0.5,3v0c0-1.4,1.1-2.5,2.5-2.5h3V5.5z"/></g>
<g transform="translate(917.875,791.875) scale(3.605)"><path d="M3,5.5H0v-5h3c1.4,0,2.5,1.1,2.5,2.5v0C5.5,4.4,4.4,5.5,3,5.5z"/></g>
<g transform="translate(371.875,812.875) scale(3.605)"><path d="M6,5.5H3C1.6,5.5,0.5,4.4,0.5,3v0c0-1.4,1.1-2.5,2.5-2.5h3V5.5z"/></g>
<g transform="translate(392.875,812.875) scale(3.605)"><rect y="0.5" width="6" height="5"/></g>
<g transform="translate(413.875,812.875) scale(3.605)"><path d="M3,5.5H0v-5h3c1.4,0,2.5,1.1,2.5,2.5v0C5.5,4.4,4.4,5.5,3,5.5z"/></g>
<g transform="translate(497.875,812.875) scale(3.605)"><circle cx="3" cy="3" r="2.5"/></g>
<g transform="translate(581.875,812.875) scale(3.605)"><path d="M6,5.5H3C1.6,5.5,0.5,4.4,0.5,3v0c0-1.4,1.1-2.5,2.5-2.5h3V5.5z"/></g>
<g transform="translate(602.875,812.875) scale(3.605)"><path d="M3,5.5H0v-5h3c1.4,0,2.5,1.1,2.5,2.5v0C5.5,4.4,4.4,5.5,3,5.5z"/></g>
<g transform="translate(665.875,812.875) scale(3.605)"><circle cx="3" cy="3" r="2.5"/></g>
<g transform="translate(749.875,812.875) scale(3.605)"><circle cx="3" cy="3" r="2.5"/></g>
<g transform="translate(833.875,812.875) scale(3.605)"><circle cx="3" cy="3" r="2.5"/></g>
<g transform="translate(896.875,812.875) scale(3.605)"><path d="M6,5.5H3C1.6,5.5,0.5,4.4,0.5,3v0c0-1.4,1.1-2.5,2.5-2.5h3V5.5z"/></g>
<g transform="translate(917.875,812.875) scale(3.605)"><path d="M3,5.5H0v-5h3c1.4,0,2.5,1.1,2.5,2.5v0C5.5,4.4,4.4,5.5,3,5.5z"/></g>
<g transform="translate(329.875,833.875) scale(3.605)"><path d="M6,5.5H3C1.6,5.5,0.5,4.4,0.5,3v0c0-1.4,1.1-2.5,2.5-2.5h3V5.5z"/></g>
<g transform="translate(350.875,833.875) scale(3.605)"><rect y="0.5" width="6" height="5"/></g>
<g transform="translate(371.875,833.875) scale(3.605)"><rect y="0.5" width="6" height="5"/></g>
<g transform="translate(392.875,833.875) scale(3.605)"><rect y="0.5" width="6" height="5"/></g>
<g transform="translate(413.875,833.875) scale(3.605)"><rect y="0.5" width="6" height="5"/></g>
<g transform="translate(434.875,833.875) scale(3.605)"><path d="M3,5.5H0v-5h3c1.4,0,2.5,1.1,2.5,2.5v0C5.5,4.4,4.4,5.5,3,5.5z"/></g>
<g transform="translate(518.875,833.875) scale(3.605)"><path d="M6,5.5H3C1.6,5.5,0.5,4.4,0.5,3v0c0-1.4,1.1-2.5,2.5-2.5h3V5.5z"/></g>
<g transform="translate(539.875,833.875) scale(3.605)"><path d="M3,5.5H0v-5h3c1.4,0,2.5,1.1,2.5,2.5v0C5.5,4.4,4.4,5.5,3,5.5z"/></g>
<g transform="translate(581.875,833.875) scale(3.605)"><circle cx="3" cy="3" r="2.5"/></g>
<g transform="translate(686.875,833.875) scale(3.605)"><circle cx="3" cy="3" r="2.5"/></g>
<g transform="translate(728.875,833.875) scale(3.605)"><path d="M6,5.5H3C1.6,5.5,0.5,4.4,0.5,3v0c0-1.4,1.1-2.5,2.5-2.5h3V5.5z"/></g>
<g transform="translate(749.875,833.875) scale(3.605)"><rect y="0.5" width="6" height="5"/></g>
<g transform="translate(770.875,833.875) scale(3.605)"><rect y="0.5" width="6" height="5"/></g>
<g transform="translate(791.875,833.875) scale(3.605)"><rect y="0.5" width="6" height="5"/></g>
<g transform="translate(812.875,833.875) scale(3.605)"><rect y="0.5" width="6" height="5"/></g>
<g transform="translate(833.875,833.875) scale(3.605)"><path d="M3,5.5H0v-5h3c1.4,0,2.5,1.1,2.5,2.5v0C5.5,4.4,4.4,5.5,3,5.5z"/></g>
<g transform="translate(875.875,833.875) scale(3.605)"><circle cx="3" cy="3" r="2.5"/></g>
<g transform="translate(329.875,854.875) scale(3.605)"><circle cx="3" cy="3" r="2.5"/></g>
<g transform="translate(434.875,854.875) scale(3.605)"><path d="M6,5.5H3C1.6,5.5,0.5,4.4,0.5,3v0c0-1.4,1.1-2.5,2.5-2.5h3V5.5z"/></g>
<g transform="translate(455.875,854.875) scale(3.605)"><path d="M3,5.5H0v-5h3c1.4,0,2.5,1.1,2.5,2.5v0C5.5,4.4,4.4,5.5,3,5.5z"/></g>
<g transform="translate(581.875,854.875) scale(3.605)"><circle cx="3" cy="3" r="2.5"/></g>
<g transform="translate(623.875,854.875) scale(3.605)"><circle cx="3" cy="3" r="2.5"/></g>
<g transform="translate(665.875,854.875) scale(3.605)"><path d="M6,5.5H3C1.6,5.5,0.5,4.4,0.5,3v0c0-1.4,1.1-2.5,2.5-2.5h3V5.5z"/></g>
<g transform="translate(686.875,854.875) scale(3.605)"><path d="M3,5.5H0v-5h3c1.4,0,2.5,1.1,2.5,2.5v0C5.5,4.4,4.4,5.5,3,5.5z"/></g>
<g transform="translate(791.875,854.875) scale(3.605)"><path d="M6,5.5H3C1.6,5.5,0.5,4.4,0.5,3v0c0-1.4,1.1-2.5,2.5-2.5h3V5.5z"/></g>
<g transform="translate(812.875,854.875) scale(3.605)"><rect y="0.5" width="6" height="5"/></g>
<g transform="translate(833.875,854.875) scale(3.605)"><path d="M3,5.5H0v-5h3c1.4,0,2.5,1.1,2.5,2.5v0C5.5,4.4,4.4,5.5,3,5.5z"/></g>
<g transform="translate(875.875,854.875) scale(3.605)"><circle cx="3" cy="3" r="2.5"/></g>
<g transform="translate(329.875,875.875) scale(3.605)"><circle cx="3" cy="3" r="2.5"/></g>
<g transform="translate(392.875,875.875) scale(3.605)"><path d="M6,5.5H3C1.6,5.5,0.5,4.4,0.5,3v0c0-1.4,1.1-2.5,2.5-2.5h3V5.5z"/></g>
<g transform="translate(413.875,875.875) scale(3.605)"><path d="M3,5.5H0v-5h3c1.4,0,2.5,1.1,2.5,2.5v0C5.5,4.4,4.4,5.5,3,5.5z"/></g>
<g transform="translate(455.875,875.875) scale(3.605)"><path d="M6,5.5H3C1.6,5.5,0.5,4.4,0.5,3v0c0-1.4,1.1-2.5,2.5-2.5h3V5.5z"/></g>
<g transform="translate(476.875,875.875) scale(3.605)"><rect y="0.5" width="6" height="5"/></g>
<g transform="translate(497.875,875.875) scale(3.605)"><rect y="0.5" width="6" height="5"/></g>
<g transform="translate(518.875,875.875) scale(3.605)"><path d="M3,5.5H0v-5h3c1.4,0,2.5,1.1,2.5,2.5v0C5.5,4.4,4.4,5.5,3,5.5z"/></g>
<g transform="translate(560.875,875.875) scale(3.605)"><circle cx="3" cy="3" r="2.5"/></g>
<g transform="translate(623.875,875.875) scale(3.605)"><circle cx="3" cy="3" r="2.5"/></g>
<g transform="translate(686.875,875.875) scale(3.605)"><path d="M6,5.5H3C1.6,5.5,0.5,4.4,0.5,3v0c0-1.4,1.1-2.5,2.5-2.5h3V5.5z"/></g>
<g transform="translate(707.875,875.875) scale(3.605)"><path d="M3,5.5H0v-5h3c1.4,0,2.5,1.1,2.5,2.5v0C5.5,4.4,4.4,5.5,3,5.5z"/></g>
<g transform="translate(749.875,875.875) scale(3.605)"><path d="M6,5.5H3C1.6,5.5,0.5,4.4,0.5,3v0c0-1.4,1.1-2.5,2.5-2.5h3V5.5z"/></g>
<g transform="translate(770.875,875.875) scale(3.605)"><path d="M3,5.5H0v-5h3c1.4,0,2.5,1.1,2.5,2.5v0C5.5,4.4,4.4,5.5,3,5.5z"/></g>
<g transform="translate(812.875,875.875) scale(3.605)"><circle cx="3" cy="3" r="2.5"/></g>
<g transform="translate(854.875,875.875) scale(3.605)"><circle cx="3" cy="3" r="2.5"/></g>
<g transform="translate(917.875,875.875) scale(3.605)"><circle cx="3" cy="3" r="2.5"/></g>
<g transform="translate(350.875,896.875) scale(3.605)"><path d="M6,5.5H3C1.6,5.5,0.5,4.4,0.5,3v0c0-1.4,1.1-2.5,2.5-2.5h3V5.5z"/></g>
<g transform="translate(371.875,896.875) scale(3.605)"><path d="M3,5.5H0v-5h3c1.4,0,2.5,1.1,2.5,2.5v0C5.5,4.4,4.4,5.5,3,5.5z"/></g>
<g transform="translate(434.875,896.875) scale(3.605)"><circle cx="3" cy="3" r="2.5"/></g>
<g transform="translate(539.875,896.875) scale(3.605)"><circle cx="3" cy="3" r="2.5"/></g>
<g transform="translate(623.875,896.875) scale(3.605)"><circle cx="3" cy="3" r="2.5"/></g>
<g transform="translate(665.875,896.875) scale(3.605)"><circle cx="3" cy="3" r="2.5"/></g>
<g transform="translate(707.875,896.875) scale(3.605)"><path d="M6,5.5H3C1.6,5.5,0.5,4.4,0.5,3v0c0-1.4,1.1-2.5,2.5-2.5h3V5.5z"/></g>
<g transform="translate(728.875,896.875) scale(3.605)"><rect y="0.5" width="6" height="5"/></g>
<g transform="translate(749.875,896.875) scale(3.605)"><path d="M3,5.5H0v-5h3c1.4,0,2.5,1.1,2.5,2.5v0C5.5,4.4,4.4,5.5,3,5.5z"/></g>
<g transform="translate(791.875,896.875) scale(3.605)"><path d="M6,5.5H3C1.6,5.5,0.5,4.4,0.5,3v0c0-1.4,1.1-2.5,2.5-2.5h3V5.5z"/></g>
<g transform="translate(812.875,896.875) scale(3.605)"><path d="M3,5.5H0v-5h3c1.4,0,2.5,1.1,2.5,2.5v0C5.5,4.4,4.4,5.5,3,5.5z"/></g>
<g transform="translate(917.875,896.875) scale(3.605)"><circle cx="3" cy="3" r="2.5"/></g>
<g transform="translate(371.875,917.875) scale(3.605)"><circle cx="3" cy="3" r="2.5"/></g>
<g transform="translate(434.875,917.875) scale(3.605)"><path d="M6,5.5H3C1.6,5.5,0.5,4.4,0.5,3v0c0-1.4,1.1-2.5,2.5-2.5h3V5.5z"/></g>
<g transform="translate(455.875,917.875) scale(3.605)"><path d="M3,5.5H0v-5h3c1.4,0,2.5,1.1,2.5,2.5v0C5.5,4.4,4.4,5.5,3,5.5z"/></g>
<g transform="translate(539.875,917.875) scale(3.605)"><path d="M6,5.5H3C1.6,5.5,0.5,4.4,0.5,3v0c0-1.4,1.1-2.5,2.5-2.5h3V5.5z"/></g>
<g transform="translate(560.875,917.875) scale(3.605)"><rect y="0.5" width="6" height="5"/></g>
<g transform="translate(581.875,917.875) scale(3.605)"><path d="M3,5.5H0v-5h3c1.4,0,2.5,1.1,2.5,2.5v0C5.5,4.4,4.4,5.5,3,5.5z"/></g>
<g transform="translate(686.875,917.875) scale(3.605)"><path d="M6,5.5H3C1.6,5.5,0.5,4.4,0.5,3v0c0-1.4,1.1-2.5,2.5-2.5h3V5.5z"/></g>
<g transform="translate(707.875,917.875) scale(3.605)"><path d="M3,5.5H0v-5h3c1.4,0,2.5,1.1,2.5,2.5v0C5.5,4.4,4.4,5.5,3,5.5z"/></g>
<g transform="translate(770.875,917.875) scale(3.605)"><circle cx="3" cy="3" r="2.5"/></g>
<g transform="translate(812.875,917.875) scale(3.605)"><circle cx="3" cy="3" r="2.5"/></g>
<g transform="translate(875.875,917.875) scale(3.605)"><path d="M6,5.5H3C1.6,5.5,0.5,4.4,0.5,3v0c0-1.4,1.1-2.5,2.5-2.5h3V5.5z"/></g>
<g transform="translate(896.875,917.875) scale(3.605)"><rect y="0.5" width="6" height="5"/></g>
<g transform="translate(917.875,917.875) scale(3.605)"><path d="M3,5.5H0v-5h3c1.4,0,2.5,1.1,2.5,2.5v0C5.5,4.4,4.4,5.5,3,5.5z"/></g>
<g transform="translate(161.875,161.875)"><g transform="scale(10.5)"><path d="M0,0v9.6C0,12,2,14,4.4,14h5.1C12,14,14,12,14,9.6V4.4C14,2,12,0,9.6,0H0z M9.2,12H4.8C3.3,12,2,10.7,2,9.2V2h7.2 C10.7,2,12,3.3,12,4.8v4.4C12,10.7,10.7,12,9.2,12z"/></g></g>
<g transform="translate(791.875,161.875)"><g transform="scale(10.5) rotate(90 7 7)"><path d="M0,0v9.6C0,12,2,14,4.4,14h5.1C12,14,14,12,14,9.6V4.4C14,2,12,0,9.6,0H0z M9.2,12H4.8C3.3,12,2,10.7,2,9.2V2h7.2 C10.7,2,12,3.3,12,4.8v4.4C12,10.7,10.7,12,9.2,12z"/></g></g>
<g transform="translate(161.875,791.875)"><g transform="scale(10.5) rotate(-90 7 7)"><path d="M0,0v9.6C0,12,2,14,4.4,14h5.1C12,14,14,12,14,9.6V4.4C14,2,12,0,9.6,0H0z M9.2,12H4.8C3.3,12,2,10.7,2,9.2V2h7.2 C10.7,2,12,3.3,12,4.8v4.4C12,10.7,10.7,12,9.2,12z"/></g></g>
<g transform="translate(203.875,203.875)"><g transform="scale(10.5)"><rect width="6" height="6"/></g></g>
<g transform="translate(833.875,203.875)"><g transform="scale(10.5)"><rect width="6" height="6"/></g></g>
<g transform="translate(203.875,833.875)"><g transform="scale(10.5)"><rect width="6" height="6"/></g></g>
</g></g></mask></defs><rect width="926.46458333333" height="926.46458333333" fill="#ffffff" x="91.729166666667" y="91.729166666667"/><rect x="0" y="0" width="1100.75" height="1237.34375" mask="url(#qrmask)" fill="url(#pattern-mask)"/><g transform="translate(161.875,1087.8311062566) scale(0.58783477076714)"><path fill="#FFFFFF" d="M32.9,67.4q8.9,0,16.35,7.9t7.45,18.35t-7.4,18.3t-15.9,7.85t-12.1-4.8q-0.8,4.9-8.6,4.9q-6.3,0-7.7-2.7q-0.7-1.5-0.85-2.65t-0.15-3.45l0-59.7q0-2.3,0.15-3.45t0.85-2.55q1.4-2.7,7.8-2.7q6.3,0,7.6,2.7q0.8,1.5,0.95,2.65t0.15,3.45l0,20.8q4-4.9,11.4-4.9z M30.3,102.4q3.7,0,6.3-2.7t2.6-6t-2.4-6.05t-6.4-2.75t-6.35,2.8t-2.35,6.05t2.45,5.95t6.15,2.7z M63.2,76.1q0-2.3,0.15-3.45t0.85-2.65q1.4-2.6,7.8-2.6q4.8,0,6.8,1.7q1.7,1.4,1.8,4.3q0.1,1,0.1,2.9l0,35q0,2.3-0.15,3.45t-0.95,2.65q-1.3,2.6-7.7,2.6q-6.3,0-7.7-2.7q-0.7-1.5-0.85-2.6t-0.15-3.5l0-35.1z M77,59.6q-1.9,0.6-5.05,0.6t-5.05-0.6t-2.65-2.1t-0.9-2.65t-0.15-3.45t0.15-3.45t0.85-2.55q1.4-2.7,7.8-2.7q6.3,0,7.6,2.7q0.8,1.5,0.95,2.65t0.15,3.45t-0.15,3.45t-0.9,2.6t-2.65,2.05z M119.3,85l-6.5-0.4l0,13.8q0,2.7,0.85,3.9t3.2,1.2t3.6,0.15t2.65,0.95q2.3,1.3,2.3,6.7q0,6.3-2.8,7.7q-1.5,0.7-2.65,0.85t-3.35,0.15q-10.4,0-15.8-4.7t-5.4-15.9l0-14.8q-1.9,0.3-4.1,0.3t-3.65-1.7t-1.45-5.8t0.5-5.95t1.4-2.65q1.6-1.3,4-1.3l3.3,0.4l0-10.3q0-2.3,0.15-3.4t0.95-2.4q1.3-2.5,7.7-2.5q6.8,0,8.1,3.7q0.5,1.6,0.5,5.1l0,9.8q4.4-0.4,6.65-0.4t3.4,0.15t2.65,0.95q2.6,1.3,2.6,7.7q0,6.3-2.7,7.7q-1.5,0.7-2.65,0.85t-3.45,0.15z M149.1,103.5q1.7,1.7,1.7,7l0,0.4q0,2.4-0.15,3.55t-1.05,2.75q-1.5,2.9-7.55,2.9t-8-1.9t-1.95-7.2l0-0.4q0-2.3,0.15-3.5t0.95-2.7q1.5-3,7.55-3t8.35,2.1z M157.3,51.3q0-2.3,0.15-3.45t0.85-2.65q1.4-2.7,7.8-2.7q6.1,0,7.6,2.7q0.8,1.5,0.95,2.7t0.15,3.5l0,46.3q0,3.6,0.6,4.55t2.65,0.95t2.75,0.15t1.7,0.85q2,1.3,2,7.1q0,6.3-2,7.7q-2.6,1.8-12.4,0.6q-7.7-1-10-5.1q-2.8-4.9-2.8-15.6l0-47.6z M239,67.9q5.9,2.6,5.9,6.3q0,1.8-0.8,3.4t-0.8,1.7l-26.2,58.6q-0.8,1.9-1.35,2.9t-1.75,1.9t-3,0.9t-5.3-1.5q-5.9-2.6-5.9-6.2q0-2.4,9.6-22.9l-19.9-33.5q-2-3.3-2-4.9q0-3.2,5.4-6.4q3.4-2,5.3-2t3.1,0.8t1.75,1.65t5.5,9.3t9.45,15.75q0.5-1.6,5.4-12.35t5.25-11.45t1.15-1.7q1.3-1.7,3.65-1.7t5.55,1.4z M264,120.8q-0.8,1.7-1.25,2.5t-1.5,1.55t-2.75,0.75t-5-1.5t-4.45-2.65t-1.15-2.55t1.2-5l32.2-67.3q1.9-3.8,3.4-4.4q0.8-0.4,2.35-0.4t5.05,1.6q5.4,2.6,5.4,5.7q0,1.3-1.4,5z M303.4,115.3q-1.9-1.2-1.9-3.8t3.8-7.9q1.1-1.7,3.55-1.7t6.65,2.45t7.6,2.45q6.1,0,6.1-2.4q0-1.9-6.7-2.8q-6.3-0.9-12.5-4.7q-2.9-1.8-4.8-5.65t-1.9-9.15q0-15.8,21.7-15.8q7.1,0,14.6,3.4q3.5,1.6,3.5,4t-2.2,5.9t-4.5,3.5q-1.2,0-4.45-1.5t-7.05-1.5q-5.9,0-5.9,2.2q0,3,6.8,3.9q6.6,0.7,12.8,3.8q2.9,1.4,4.85,4.85t1.95,8.65t-1.95,8.85t-5.45,5.45q-6.4,3.1-16.05,3.1t-18.55-5.6z M382.7,67.4q6.9,0,8.1,3.8q0.6,1.9,0.6,5t-0.65,4.95t-2.05,2.65q-2.1,1.2-6.1,1.2l-6.4-0.4l0,26.8q0,3.8-0.95,5.65t-2.9,2.45t-5.05,0.6t-4.95-0.65t-2.65-2.1t-0.95-2.65t-0.15-3.5l0-26.5l-3.6,0q-2.6-0.2-3.7-1.2q-1.9-1.9-1.9-7.3q0-8.2,5.9-8.2l3.3,0l0-5.3q0-7.7,5.5-13.95t15.9-6.25q2.3,0,3.45,0.15t2.65,0.95q2.7,1.3,2.7,7.7q0,4.8-1.7,6.9q-1.4,1.6-4.4,1.8l-2.8,0q-3.7,0-3.7,2.5l0,5.5z M444.65,96.45q-3.05,2.95-6.75,2.95l-23.7,0q0,2.8,3.3,4.7t6.6,1.9q5.8,0,9.1-1.2l1.1-0.4q2.4-1.1,4-1.1q3.2,0,5.5,4.5q1.3,2.7,1.3,4.6q0,8.9-21.3,8.9q-7.4,0-13.15-2.55t-8.95-6.75q-6.3-8.1-6.3-18.1q0-12.6,8.15-20.15t20.35-7.55q13.9,0,20.4,9.8q3.4,5.2,3.4,11.35t-3.05,9.1z M426.6,90.3q3.8,0,3.8-3.2q0-2.3-1.75-3.7t-5-1.4t-6.45,2.65t-3.2,5.65l12.6,0z M454.2,76.1q0-2.3,0.15-3.45t0.85-2.65q1.4-2.6,7.8-2.6q4.8,0,6.8,1.7q1.7,1.4,1.8,4.3q0.1,1,0.1,2.9l0,35q0,2.3-0.15,3.45t-0.95,2.65q-1.3,2.6-7.7,2.6q-6.3,0-7.7-2.7q-0.7-1.5-0.85-2.6t-0.15-3.5l0-35.1z M468,59.6q-1.9,0.6-5.05,0.6t-5.05-0.6t-2.65-2.1t-0.9-2.65t-0.15-3.45t0.15-3.45t0.85-2.55q1.4-2.7,7.8-2.7q6.3,0,7.6,2.7q0.8,1.5,0.95,2.65t0.15,3.45t-0.15,3.45t-0.9,2.6t-2.65,2.05z M518.65,69.95q1.25,1.45,1.25,4.65t-1.9,7t-5.5,3.8q-1.8,0-3.45-0.8t-4.35-0.8t-5.05,1.9t-2.35,4.6l0,21q0,2.3-0.15,3.45t-0.95,2.65q-1.5,2.6-7.8,2.6q-4.8,0-6.9-1.7q-1.6-1.4-1.8-4.3l0-2.9l0-35.1q0-2.3,0.15-3.45t0.85-2.55q1.4-2.7,7.8-2.7q6,0,7.5,2.3q1.1,1.6,1.1,3.3q0.5-0.7,1.45-1.7t4.05-2.7t5.45-1.7t3.95,0.25t3.5,0.85t3.15,2.05z M554.9,106.1l-23.8,0q-5.6,0-6.7-3.4q-0.5-1.8-0.5-4.6t0.6-4.5t1.9-2.4q1.8-0.9,4.8-0.9l23.8,0q5.6,0,6.6,3.3q0.6,1.8,0.6,4.6t-0.55,4.55t-1.75,2.45q-1.8,0.9-5,0.9z M602.9,72.9q0.6-5.6,7.9-5.6q3.9,0,5.8,0.6t2.65,2.1t0.9,2.65t0.15,3.45l0,35q0,2.3-0.15,3.45t-0.85,2.65q-1.4,2.6-6.85,2.6t-7.3-1.35t-2.15-3.95q-3.7,5.3-12.35,5.3t-16.05-7.9t-7.4-18.35t7.45-18.3t16.35-7.85q3.4,0,6.2,1.2t3.9,2.25t1.8,2.05z M587.3,99.65q2.6,2.65,6.3,2.65t6.15-2.7t2.45-5.95t-2.35-6.05t-6.3-2.8t-6.4,2.8t-2.45,6.1t2.6,5.95z M654.6,102.4l17.1,0q4,0,5.75,1t2.35,2.9t0.6,5t-0.6,5t-2.1,2.65t-2.65,0.9t-3.45,0.15l-36.1,0q-3.5,0-6.1-2.6t-2.6-6.2t2.6-6.15t8-7.35t9.8-8.65t4.8-4.25l-14.1,0q-5.7,0-7.2-1.9q-1.7-2.2-1.7-5.8t0.5-5.35t1.2-2.6t2-1.35q1.7-0.5,5.2-0.5l32.5,0q3.5,0,6.1,2.5t2.6,6.25t-3,6.65t-21.5,19.7z M710.3,119.8q-10.1,0-16.75-7.65t-6.65-18.65l0-17.5q0-2.4,0.15-3.5t0.85-2.6q1.4-2.7,7.8-2.7q7,0,8.2,3.8q0.6,1.6,0.6,5.1l0,17.5q0,4.1,2.35,6.4t6.3,2.3t6.4-2.4t2.45-6.3l0-17.7q0-2.3,0.15-3.45t0.95-2.65q1.3-2.6,7.7-2.6q6.3,0,7.7,2.7q0.7,1.5,0.85,2.65t0.15,3.45l0,35.4q0,2.2-0.15,3.35t-0.95,2.55q-1.5,2.6-7.7,2.6q-6.1,0-7.5-2.4q-1-1.7-1-4.1q-0.4,0.7-1.8,2t-2.7,2.2q-3.4,2.2-7.4,2.2z M786.45,69.95q1.25,1.45,1.25,4.65t-1.9,7t-5.5,3.8q-1.8,0-3.45-0.8t-4.35-0.8t-5.05,1.9t-2.35,4.6l0,21q0,2.3-0.15,3.45t-0.95,2.65q-1.5,2.6-7.8,2.6q-4.8,0-6.9-1.7q-1.6-1.4-1.8-4.3l0-2.9l0-35.1q0-2.3,0.15-3.45t0.85-2.55q1.4-2.7,7.8-2.7q6,0,7.5,2.3q1.1,1.6,1.1,3.3q0.5-0.7,1.45-1.7t4.05-2.7t5.45-1.7t3.95,0.25t3.5,0.85t3.15,2.05z M840.95,96.45q-3.05,2.95-6.75,2.95l-23.7,0q0,2.8,3.3,4.7t6.6,1.9q5.8,0,9.1-1.2l1.1-0.4q2.4-1.1,4-1.1q3.2,0,5.5,4.5q1.3,2.7,1.3,4.6q0,8.9-21.3,8.9q-7.4,0-13.15-2.55t-8.95-6.75q-6.3-8.1-6.3-18.1q0-12.6,8.15-20.15t20.35-7.55q13.9,0,20.4,9.8q3.4,5.2,3.4,11.35t-3.05,9.1z M822.9,90.3q3.8,0,3.8-3.2q0-2.3-1.75-3.7t-5-1.4t-6.45,2.65t-3.2,5.65l12.6,0z M880,106.1l-23.8,0q-5.6,0-6.7-3.4q-0.5-1.8-0.5-4.6t0.6-4.5t1.9-2.4q1.8-0.9,4.8-0.9l23.8,0q5.6,0,6.6,3.3q0.6,1.8,0.6,4.6t-0.55,4.55t-1.75,2.45q-1.8,0.9-5,0.9z M931.8,43.3q1.9-0.6,5.05-0.6t5.05,0.6t2.65,2.1t0.9,2.65t0.15,3.45l0,59.7q0,2.3-0.15,3.45t-0.95,2.55q-1.5,2.7-8.45,2.7t-7.75-4.9q-4.2,4.8-11.7,4.8q-9,0-16.4-7.85t-7.4-18.3t7.45-18.35t16.35-7.9q7.4,0,11.5,5l0-21q0-2.3,0.15-3.45t0.9-2.6t2.65-2.05z M919.2,102.4q3.7,0,6.15-2.7t2.45-5.95t-2.35-6.05t-6.35-2.8t-6.4,2.75t-2.4,6.05t2.6,6t6.3,2.7z M1001.35,96.45q-3.05,2.95-6.75,2.95l-23.7,0q0,2.8,3.3,4.7t6.6,1.9q5.8,0,9.1-1.2l1.1-0.4q2.4-1.1,4-1.1q3.2,0,5.5,4.5q1.3,2.7,1.3,4.6q0,8.9-21.3,8.9q-7.4,0-13.15-2.55t-8.95-6.75q-6.3-8.1-6.3-18.1q0-12.6,8.15-20.15t20.35-7.55q13.9,0,20.4,9.8q3.4,5.2,3.4,11.35t-3.05,9.1z M983.3,90.3q3.8,0,3.8-3.2q0-2.3-1.75-3.7t-5-1.4t-6.45,2.65t-3.2,5.65l12.6,0z M1064,68.5q5.2,3.1,5.2,6.6q0,2-2,5.5l-20.7,35.5q-1,1.7-3.2,3.05t-4.35,1.35t-4.1-1.05t-2.75-2.15l-0.9-1.1l-20.8-35.6q-2-3.3-2-5.4q0-3.6,5.2-6.7q3.8-2.2,6-2.2t3.45,1.35t2.65,4.05l13.1,25.2l13.1-25.2q1.1-1.9,1.65-2.75t1.75-1.7t3.2-0.85t5.5,2.1z M1081.6,73.9q8.4-7.8,19.2-7.8t19.1,7.75t8.3,19.75q0,8.3-4.3,14.75t-10.45,9.5t-12.75,3.05t-12.8-3.25t-10.45-9.6t-4.25-14.35q0-12,8.4-19.8z M1100.6,103.3q3.3,0,6.6-2.5t3.3-7.4t-3.1-7.3t-6.7-2.4t-6.7,2.5t-3.1,7.35t3.2,7.3t6.5,2.45z M1134.7,134.3l0-58.4q0-2.3,0.15-3.4t0.85-2.5q1.4-2.7,6.7-2.7t7.15,1.35t2.15,3.95q3.8-5.2,11.95-5.2t15.45,7.7t7.3,17.9t-7.25,17.9t-15.45,7.7t-11.9-4.6l0,20.2q0,2.3-0.15,3.4t-0.9,2.55t-2.55,2.05t-4.9,0.6t-4.95-0.6t-2.6-2t-0.9-2.5t-0.15-3.4z M1152.2,93.1q0,3.2,2.35,5.85t6,2.65t6.2-2.6t2.55-5.9t-2.4-5.95t-6.25-2.65t-6.15,2.7t-2.3,5.9z M1193.3,115.3q-1.9-1.2-1.9-3.8t3.8-7.9q1.1-1.7,3.55-1.7t6.65,2.45t7.6,2.45q6.1,0,6.1-2.4q0-1.9-6.7-2.8q-6.3-0.9-12.5-4.7q-2.9-1.8-4.8-5.65t-1.9-9.15q0-15.8,21.7-15.8q7.1,0,14.6,3.4q3.5,1.6,3.5,4t-2.2,5.9t-4.5,3.5q-1.2,0-4.45-1.5t-7.05-1.5q-5.9,0-5.9,2.2q0,3,6.8,3.9q6.6,0.7,12.8,3.8q2.9,1.4,4.85,4.85t1.95,8.65t-1.95,8.85t-5.45,5.45q-6.4,3.1-16.05,3.1t-18.55-5.6z M1271.3,106.1l-23.8,0q-5.6,0-6.7-3.4q-0.5-1.8-0.5-4.6t0.6-4.5t1.9-2.4q1.8-0.9,4.8-0.9l23.8,0q5.6,0,6.6,3.3q0.6,1.8,0.6,4.6t-0.55,4.55t-1.75,2.45q-1.8,0.9-5,0.9z M1302.9,49.2q2.6-2.6,5.65-2.6t4.75,0.5t2.6,1.15t1.4,2.15q0.5,1.7,0.5,5.3l0,55.7q0,2.3-0.15,3.45t-0.95,2.65q-1.4,2.7-7.8,2.7q-6.2,0-7.7-2.6q-0.8-1.5-0.95-2.75t-0.15-3.65l0-35.7l-1.3,1.2q-4.1,3.1-7,3.1t-6.05-3.5t-3.15-6.2t3.6-5.9l16.4-14.8z"/></g></svg>
